<svg fill="none" height="121" viewBox="0 0 461 121" width="461" xmlns="http://www.w3.org/2000/svg" xmlns:xlink="http://www.w3.org/1999/xlink"><clipPath id="a"><path d="m0 0h460.2v120.8h-460.2z"/></clipPath><g clip-path="url(#a)" fill="#222"><path d="m96.7 50.7c.1-.2 0-.4-.1-.5-.1-.2-.3-.2-.5-.2h-12.2c-.3 0-.5.2-.6.4l-15.7 51.6-.3-.8-17.4-50.9c-.1-.2-.3-.4-.5-.4h-11.9c-.2 0-.4.1-.5.2-.1.2-.1.4-.1.5l6 16.4v.1l-12.9 35-.2-.7-16.3-51.1c-.1-.2-.3-.4-.6-.4h-12.3c-.2 0-.4.1-.5.2-.1.2-.1.4-.1.6l23.2 68.1c.1.2.3.4.6.4h11.6c.3 0 .5-.1.6-.4l12.8-35.5 12.7 35.5c.1.2.3.4.5.4h11.7c.3 0 .5-.2.6-.4z"/><path d="m175.3 49.9h-10.3c-.3 0-.5.2-.6.5l-1.5 7.4-.3-.4c-2.1-2.2-4.8-4.2-8.1-6-4-2.1-8.7-3.1-14.2-3.1-9.9 0-18.2 3.5-24.7 10.5-6.4 6.9-9.7 15.6-9.7 25.8 0 10.3 3.2 19 9.4 25.9 6.3 6.9 14.7 10.4 25 10.4 5 0 9.6-1.1 13.9-3.2 3.5-1.8 6.3-3.9 8.3-6.3l.3-.4 1.5 7.8c.1.3.3.5.6.5h10.4c.3 0 .6-.3.6-.6v-68.2c0-.3-.3-.6-.6-.6zm-17.9 51.8c-4.1 4.6-9.4 6.9-15.8 6.9-6.5 0-11.9-2.3-15.9-6.9-4.1-4.6-6.1-10.4-6.1-17.2s2.1-12.6 6.1-17.2 9.4-6.9 15.9-6.9c6.4 0 11.8 2.3 15.8 6.9 4.1 4.6 6.2 10.4 6.2 17.2 0 6.9-2.1 12.6-6.2 17.2z"/><path d="m249.2 107h-36.3l35.8-46.5c.1-.1.1-.2.1-.4v-9.7c0-.3-.3-.6-.6-.6h-49.2c-.3 0-.6.3-.6.6v11c0 .3.3.6.6.6h32.5l-35.7 46.5c-.1.1-.1.2-.1.4v9.7c0 .3.3.6.6.6h52.9c.3 0 .6-.3.6-.6v-11c0-.4-.3-.6-.6-.6z"/><path d="m324.4 58.7c-6.7-6.9-15.4-10.5-25.7-10.5-10.4 0-19 3.5-25.7 10.5-6.7 6.9-10 15.6-10 25.8s3.4 18.9 10 25.8c6.7 7 15.3 10.5 25.7 10.5s19-3.5 25.7-10.5c6.7-6.9 10.1-15.6 10.1-25.8 0-10.1-3.4-18.8-10.1-25.8zm-9.8 43.1c-4.2 4.5-9.6 6.8-15.9 6.8s-11.7-2.3-15.9-6.8-6.3-10.3-6.3-17.3 2.1-12.8 6.3-17.3 9.5-6.8 15.9-6.8c6.3 0 11.7 2.3 15.9 6.8s6.4 10.3 6.4 17.3-2.2 12.9-6.4 17.3z"/><path d="m460 23.4-10.8-2.5c.5 1.4.8 2.8.8 4.3.1 2.2-.2 4.4-.8 6.3v.2c0 .2.1.4.3.5.1 0 .2.1.3.1s.2-.1.3-.1l.2-.2.2-.2 9.4-8.1c.1-.1.1-.1.1-.2.2 0 .1-.1 0-.1z"/><path d="m359.7 0-.3.6c-3.3 5.7-1.4 13 4.3 16.3l3.5 2c-.8 1.5-1.2 3.1-1.4 4.7l47 7.4z"/><path d="m357.8 93.6c3.7 3.9 9.4 4.9 14.1 2.8l3.8-12.3c15.1 12.5 37.4 12.2 52.1-1.5 11.2-10.4 15-25.7 11.3-39.4 4.1-2 7.1-5.7 8.2-10.1.1-.3.1-.5.2-.8s.1-.6.1-.9c.1-.5.1-1.1.1-1.6 0-.1 0-.1 0-.2 0-.8-.1-1.5-.2-2.2 0-.1 0-.1 0-.2-1.2-7.2-7.5-12.7-15.2-12.7-.1 0-.1 0-.2 0-.3 0-.6 0-.9 0 0 0 0 0-.1 0-.3 0-.7.1-1 .1-.1 0-.2 0-.4 0-.1 0-.1 0-.2 0 0 0 0 0-.1 0s-.1 0-.2 0-.2.1-.4.1c-7 1.5-12.2 7.5-12.2 14.8 0 1.1.2 2.2.4 3.2l.2.7v.3c0 .7-.5 1.3-1.2 1.2l-.6-.1-69.9-11-.1.7c-1.1 6.8 3.6 13.2 10.4 14.3l4.2.7c-.8 6.6 3.8 12.8 10.5 13.8l4.2.7c-.8 6.6 3.8 12.8 10.5 13.8h.2z"/></g></svg>