<?xml version="1.0" encoding="UTF-8" standalone="no"?>
<svg
   xmlns:cc="http://creativecommons.org/ns#"
   xmlns="http://www.w3.org/2000/svg"
   id="svg5741"
   version="1.1"
   viewBox="22 0 80 60"
   height="80mm"
   width="80mm">
  <g
     transform="translate(-0.80098557,-0.39387265)"
     id="layer1">
    <g
       style="fill:#ffffff"
       id="g5691"
       transform="matrix(2.1007672,0,0,2.1007672,-846.61477,-56.623222)">
      <path
         style="fill:#555555;stroke-width:0.28222224;fill-opacity:1"
         d="m 449.26471,33.741413 -3.04631,-0.717409 c 0.12728,0.38862 0.21251,0.796714 0.23876,1.223998 0.0361,0.609318 -0.0556,1.232182 -0.23199,1.783645 v 0.01016 c -0.005,0.0175 -0.01,0.03387 -0.01,0.05249 0,0.06632 0.0375,0.122484 0.092,0.153529 l 0.003,0.0071 c 0,0 0.003,8.47e-4 0.01,0.0025 0.0231,0.01044 0.0483,0.0175 0.0756,0.0175 0.0378,0 0.0697,-0.01524 0.0985,-0.03387 0.006,-8.46e-4 0.01,-0.0023 0.01,-0.0023 l 0.0703,-0.05757 0.0624,-0.04657 2.65599,-2.281485 c 0.0178,-0.01524 0.0268,-0.04036 0.0209,-0.06435 -0.006,-0.02286 -0.0254,-0.04121 -0.0485,-0.04741 z"
         id="path5683" />
      <g
         style="fill:#555555;fill-opacity:1"
         transform="matrix(0.28222223,0,0,0.28222223,272.61504,-42.17044)"
         id="g5687">
        <path
           style="fill:#555555;fill-opacity:1"
           d="m 525.613,245.592 -0.349,0.601 c -3.312,5.659 -1.396,12.964 4.267,16.281 l 3.506,2.047 c -0.804,1.502 -1.244,3.107 -1.359,4.719 l 46.998,7.384 z"
           id="path5685" />
      </g>
      <path
         id="path5689"
         d="m 420.40269,53.571194 c 1.05269,1.099538 2.65655,1.38176 3.99231,0.79756 l 1.06821,-3.468229 c 4.2562,3.519875 10.55794,3.436902 14.71366,-0.422487 3.1496,-2.928056 4.22769,-7.245491 3.17641,-11.123507 1.15231,-0.560775 2.00716,-1.607255 2.30632,-2.863991 0.0175,-0.07112 0.0347,-0.141111 0.0485,-0.214771 0.015,-0.08269 0.0288,-0.1651 0.0384,-0.249767 0.0189,-0.147602 0.0308,-0.298027 0.0336,-0.450144 0,-0.01891 0.004,-0.03612 0.004,-0.05532 0,-0.004 -2.8e-4,-0.0071 -2.8e-4,-0.0099 0,-0.0048 2.8e-4,-0.01016 2.8e-4,-0.01411 0,-0.215053 -0.0209,-0.423333 -0.0528,-0.62992 -0.002,-0.01552 -0.004,-0.03076 -0.007,-0.04572 -0.33105,-2.031435 -2.12005,-3.585633 -4.28555,-3.585633 -0.004,0 -0.008,8.46e-4 -0.0116,8.46e-4 -0.005,0 -0.008,-8.46e-4 -0.0127,-8.46e-4 -0.0172,0 -0.0327,0.0031 -0.0497,0.0031 -0.0813,2.82e-4 -0.16369,0.0054 -0.24581,0.01157 -0.006,8.47e-4 -0.0133,0.0014 -0.0198,0.0023 -0.0945,0.0071 -0.18824,0.01863 -0.28081,0.03189 -0.0347,0.0054 -0.0703,0.0068 -0.10414,0.01185 -0.0144,0.0025 -0.0288,0.0017 -0.0426,0.0045 -0.006,0.0014 -0.013,0.0031 -0.0186,0.004 -0.0189,0.0045 -0.0375,0.0099 -0.0564,0.01298 -0.033,0.0071 -0.0657,0.01411 -0.0991,0.0223 -1.9716,0.413173 -3.45186,2.124569 -3.45186,4.181687 0,0.307904 0.044,0.607342 0.10866,0.897466 l 0.0449,0.187396 c 0.008,0.0302 0.0133,0.06124 0.0133,0.09596 0,0.194451 -0.15071,0.368017 -0.34996,0.346004 l -0.16482,-0.02342 -19.72733,-3.116016 -0.0302,0.203764 c -0.30536,1.920523 1.01262,3.733801 2.93511,4.037754 l 1.19013,0.187395 c -0.22295,1.87198 1.07386,3.606801 2.95007,3.901723 l 1.19042,0.188524 c -0.22239,1.871698 1.07272,3.606236 2.95119,3.903134 l 0.0514,0.0073 z"
         style="fill:#ffffff;fill-opacity:1;stroke-width:0.28222224" />
    </g>
  </g>
</svg>
