<?xml version="1.0" encoding="UTF-8"?>
<svg xmlns="http://www.w3.org/2000/svg" id="a" width="300" height="78.7578" viewBox="0 0 300 78.7578">
  <defs>
    <style>.n{fill:#ef3e42;}.o{fill:#233e99;}</style>
  </defs>
  <g id="b">
    <g id="c">
      <g id="d">
        <g id="e">
          <path id="f" class="o" d="M63.0666,33.0341c.0404-.1213,.0202-.2451-.0482-.3435-.0704-.0978-.1851-.1564-.3064-.1564h-7.9908c-.1675,0-.3168,.1108-.3696,.2744l-10.3108,33.6821-.1669-.4935-11.3506-33.2082c-.0482-.1499-.1982-.2549-.3566-.2549h-7.7202c-.1239,0-.2438,.0626-.3096,.1623-.0756,.0997-.0939,.2308-.0495,.3474l3.8526,10.6107-.0209,.058-8.4204,22.8387-.1493-.47L8.8202,32.8001c-.0522-.1571-.1982-.2666-.3637-.2666H.3783c-.1213,0-.2288,.0554-.3044,.1564-.073,.0978-.0932,.2275-.0548,.3462l15.0937,44.3997c.0548,.1519,.1995,.2542,.3637,.2542h7.5371c.1656,0,.3051-.0971,.3618-.2562l8.3421-23.1562,8.2593,23.1562c.0508,.1552,.1943,.2562,.3579,.2562h7.6348c.1636,0,.3064-.1056,.3611-.2666l14.7358-44.3893h0Z"></path>
          <path id="g" class="o" d="M114.2915,32.5341h-6.7476c-.1819,0-.3357,.1304-.3742,.3083l-.9824,4.805-.2223-.2431c-1.3435-1.4576-3.1134-2.7692-5.2633-3.8911-2.5808-1.3572-5.6851-2.0443-9.2267-2.0443-6.4764,0-11.8884,2.2946-16.0858,6.8272-4.1923,4.5215-6.318,10.1811-6.318,16.8153,0,6.6922,2.0632,12.3649,6.1342,16.8577,4.0867,4.5032,9.5612,6.7887,16.2697,6.7887,3.2307,0,6.2724-.6995,9.0507-2.0847,2.2822-1.1441,4.1114-2.5228,5.4347-4.101l.2256-.2731,.9843,5.0847c.0332,.1754,.1956,.3077,.3742,.3077h6.7476c.208,0,.3761-.1701,.3761-.3859V32.9135c-.0007-.2093-.1688-.3794-.3768-.3794h0Zm-11.6941,33.7799c-2.6636,2.9785-6.1401,4.4941-10.3304,4.4941-4.2457,0-7.732-1.5111-10.3669-4.4902-2.6427-2.9811-3.9843-6.7515-3.9843-11.2065,0-4.4504,1.3422-8.2189,3.9843-11.1987,2.631-2.9811,6.1179-4.4915,10.3669-4.4915,4.1968,0,7.6726,1.5104,10.3304,4.4915,2.674,2.9876,4.0299,6.7568,4.0299,11.1987-.0007,4.4511-1.3566,8.2189-4.0299,11.2026h0Z"></path>
          <path id="h" class="o" d="M162.4402,69.7364h-23.6503l23.3185-30.2884c.0567-.0639,.0828-.1428,.0828-.2301v-6.305c0-.2086-.1728-.3794-.3833-.3794h-32.0472c-.2099,0-.3827,.1708-.3827,.3794v7.1935c0,.2086,.1728,.3794,.3827,.3794h21.1601l-23.2429,30.291c-.0489,.0763-.0769,.1538-.0769,.2308v6.2978c0,.2158,.1708,.3859,.3827,.3859h34.4565c.2034,0,.3709-.1701,.3709-.3859v-7.1889c.0007-.208-.1675-.3801-.3709-.3801h0Z"></path>
          <path id="i" class="o" d="M211.4917,38.2922c-4.3748-4.5286-10.022-6.8233-16.7853-6.8233s-12.4008,2.2946-16.7443,6.8233c-4.3422,4.5149-6.5442,10.1752-6.5442,16.8192,0,6.6505,2.2021,12.3088,6.5442,16.8179,4.3435,4.5312,9.9777,6.8285,16.7443,6.8285s12.4092-2.2972,16.7853-6.8285c4.3722-4.5175,6.5886-10.1746,6.5886-16.8179,0-6.6388-2.2164-12.2965-6.5886-16.8192Zm-6.41,28.0961c-2.7483,2.9328-6.2405,4.4198-10.3753,4.4198-4.129,0-7.6055-1.483-10.3376-4.4093-2.7288-2.9341-4.1121-6.7268-4.1121-11.2873s1.3839-8.3558,4.1121-11.2821c2.7294-2.925,6.2059-4.408,10.3376-4.408,4.1349,0,7.6257,1.4824,10.3754,4.408,2.762,2.9348,4.1642,6.7294,4.1642,11.2821,0,4.5599-1.4022,8.3513-4.1642,11.2769h0Z"></path>
        </g>
        <path id="j" class="o" d="M299.8837,15.2456l-7.0364-1.6571c.294,.8977,.4909,1.8403,.5515,2.8272,.0834,1.4074-.1284,2.8461-.5359,4.1199v.0235c-.0104,.0404-.0228,.0782-.0228,.1213,0,.1532,.0867,.2829,.2125,.3546l.0065,.0163s.0078,.0019,.0222,.0059c.0534,.0241,.1115,.0404,.1747,.0404,.0873,0,.161-.0352,.2275-.0782,.0137-.0019,.0228-.0052,.0228-.0052l.1623-.133,.1441-.1076,6.1349-5.2698c.0411-.0352,.0619-.0932,.0482-.1486-.0137-.0528-.0587-.0952-.1121-.1095h0Z"></path>
        <g id="k">
          <path id="l" class="o" d="M234.4927,0l-.2275,.3918c-2.159,3.689-.91,8.451,2.7816,10.6133l2.2855,1.3344c-.5241,.9791-.811,2.0254-.8859,3.0762l30.6372,4.8135L234.4927,0Z"></path>
        </g>
      </g>
      <path id="m" class="n" d="M233.2176,61.0488c2.4315,2.5397,6.1362,3.1916,9.2215,1.8422l2.4674-8.011c9.831,8.1303,24.3869,7.9386,33.9859-.9759,7.275-6.7633,9.7652-16.7358,7.3369-25.6933,2.6616-1.2953,4.6362-3.7125,5.3272-6.6153,.0404-.1643,.0802-.3259,.1121-.4961,.0345-.191,.0665-.3813,.0886-.5769,.0437-.3409,.0711-.6884,.0776-1.0398,0-.0437,.0085-.0834,.0085-.1278,0-.0091-.0006-.0163-.0006-.0228,0-.0111,.0006-.0235,.0006-.0326,0-.4967-.0482-.9778-.1219-1.455-.0046-.0358-.0098-.0711-.0156-.1056-.7646-4.6922-4.897-8.2822-9.8988-8.2822-.0091,0-.0176,.0019-.0267,.0019-.0104,0-.0196-.0019-.0293-.0019-.0397,0-.0756,.0072-.1147,.0072-.1878,.0007-.3781,.0124-.5678,.0267-.0143,.0019-.0306,.0033-.0456,.0052-.2184,.0163-.4348,.043-.6486,.0737-.0802,.0124-.1623,.0156-.2406,.0274-.0333,.0059-.0665,.0039-.0984,.0104-.015,.0033-.03,.0072-.043,.0091-.0437,.0104-.0867,.0228-.1304,.03-.0763,.0163-.1519,.0326-.2288,.0515-4.5541,.9543-7.9732,4.9074-7.9732,9.6589,0,.7112,.1017,1.4029,.251,2.073l.1036,.4329c.0183,.0697,.0306,.1415,.0306,.2216,0,.4491-.3481,.85-.8083,.7992l-.3807-.0541-45.5666-7.1974-.0697,.4706c-.7053,4.4361,2.3389,8.6244,6.7796,9.3265l2.749,.4329c-.515,4.3239,2.4804,8.3311,6.8141,9.0123l2.7497,.4355c-.5137,4.3233,2.4778,8.3297,6.8167,9.0155l.1186,.0169-18.0298,16.7064h0Z"></path>
    </g>
  </g>
</svg>
