<?xml version="1.0" encoding="UTF-8" standalone="no"?>
<svg
   xmlns:dc="http://purl.org/dc/elements/1.1/"
   xmlns:cc="http://creativecommons.org/ns#"
   xmlns:rdf="http://www.w3.org/1999/02/22-rdf-syntax-ns#"
   xmlns:svg="http://www.w3.org/2000/svg"
   xmlns="http://www.w3.org/2000/svg"
   id="svg6424"
   version="1.1"
   viewBox="0 0 74.51255 19.873493"
   height="19.873493mm"
   width="74.51255mm">
  <defs
     id="defs6418" />
  <metadata
     id="metadata6421">
    <rdf:RDF>
      <cc:Work
         rdf:about="">
        <dc:format>image/svg+xml</dc:format>
        <dc:type
           rdf:resource="http://purl.org/dc/dcmitype/StillImage" />
        <dc:title></dc:title>
      </cc:Work>
    </rdf:RDF>
  </metadata>
  <g
     transform="translate(-5.9627015,-2.6417326)"
     id="layer1">
    <g
       transform="matrix(0.72201582,0,0,0.72201582,-278.67287,-13.866993)"
       id="g4747">
      <g
         id="g4733"
         transform="matrix(0.1942298,0,0,0.1942298,354.01477,-36.87139)"
         style="fill:#2e8555">
        <g
           id="g4731"
           transform="translate(41.119381,42.225205)"
           style="fill:#2e8555">
          <g
             id="g4729"
             style="fill:#2e8555">
            <g
               id="g4727"
               style="fill:#2e8555">
              <path
                 id="path4719"
                 d="m 262.642,296.267 c 0.062,-0.186 0.031,-0.376 -0.074,-0.527 -0.108,-0.15 -0.284,-0.24 -0.47,-0.24 H 249.84 c -0.257,0 -0.486,0.17 -0.567,0.421 l -15.817,51.669 -0.256,-0.757 -17.412,-50.942 c -0.074,-0.23 -0.304,-0.391 -0.547,-0.391 h -11.843 c -0.19,0 -0.374,0.096 -0.475,0.249 -0.116,0.153 -0.144,0.354 -0.076,0.533 l 5.91,16.277 -0.032,0.089 -12.917,35.035 -0.229,-0.721 -16.152,-51.054 c -0.08,-0.241 -0.304,-0.409 -0.558,-0.409 h -12.392 c -0.186,0 -0.351,0.085 -0.467,0.24 -0.112,0.15 -0.143,0.349 -0.084,0.531 l 23.154,68.11 c 0.084,0.233 0.306,0.39 0.558,0.39 H 201.2 c 0.254,0 0.468,-0.149 0.555,-0.393 l 12.797,-35.522 12.67,35.522 c 0.078,0.238 0.298,0.393 0.549,0.393 h 11.712 c 0.251,0 0.47,-0.162 0.554,-0.409 z"
                 style="fill:#2e8555" />
              <path
                 id="path4721"
                 d="m 341.222,295.5 h -10.351 c -0.279,0 -0.515,0.2 -0.574,0.473 l -1.507,7.371 -0.341,-0.373 c -2.061,-2.236 -4.776,-4.248 -8.074,-5.969 -3.959,-2.082 -8.721,-3.136 -14.154,-3.136 -9.935,0 -18.237,3.52 -24.676,10.473 -6.431,6.937 -9.692,15.618 -9.692,25.795 0,10.266 3.165,18.968 9.41,25.86 6.269,6.908 14.667,10.414 24.958,10.414 4.956,0 9.622,-1.073 13.884,-3.198 3.501,-1.755 6.307,-3.87 8.337,-6.291 l 0.346,-0.42 1.51,7.8 c 0.051,0.269 0.3,0.472 0.574,0.472 h 10.351 c 0.319,0 0.577,-0.261 0.577,-0.592 v -68.098 c -0.001,-0.32 -0.259,-0.581 -0.578,-0.581 z m -17.939,51.819 c -4.086,4.569 -9.419,6.894 -15.847,6.894 -6.513,0 -11.861,-2.318 -15.903,-6.888 -4.054,-4.573 -6.112,-10.357 -6.112,-17.191 0,-6.827 2.059,-12.608 6.112,-17.179 4.036,-4.573 9.385,-6.89 15.903,-6.89 6.438,0 11.77,2.317 15.847,6.89 4.102,4.583 6.182,10.365 6.182,17.179 -10e-4,6.828 -2.081,12.608 -6.182,17.185 z"
                 style="fill:#2e8555" />
              <path
                 id="path4723"
                 d="m 415.083,352.569 h -36.28 l 35.771,-46.463 c 0.087,-0.098 0.127,-0.22 0.127,-0.353 v -9.672 c 0,-0.32 -0.265,-0.582 -0.588,-0.582 h -49.161 c -0.322,0 -0.587,0.262 -0.587,0.582 v 11.035 c 0,0.32 0.265,0.582 0.587,0.582 h 32.46 l -35.655,46.467 c -0.075,0.117 -0.118,0.236 -0.118,0.354 v 9.661 c 0,0.331 0.262,0.592 0.587,0.592 h 52.857 c 0.312,0 0.569,-0.261 0.569,-0.592 v -11.028 c 0.001,-0.319 -0.257,-0.583 -0.569,-0.583 z"
                 style="fill:#2e8555" />
              <path
                 id="path4725"
                 d="m 490.329,304.333 c -6.711,-6.947 -15.374,-10.467 -25.749,-10.467 -10.38,0 -19.023,3.52 -25.686,10.467 -6.661,6.926 -10.039,15.609 -10.039,25.801 0,10.202 3.378,18.882 10.039,25.799 6.663,6.951 15.306,10.475 25.686,10.475 10.375,0 19.036,-3.524 25.749,-10.475 6.707,-6.93 10.107,-15.608 10.107,-25.799 0,-10.184 -3.4,-18.863 -10.107,-25.801 z m -9.833,43.1 c -4.216,4.499 -9.573,6.78 -15.916,6.78 -6.334,0 -11.667,-2.275 -15.858,-6.764 -4.186,-4.501 -6.308,-10.319 -6.308,-17.315 0,-6.995 2.123,-12.818 6.308,-17.307 4.187,-4.487 9.52,-6.762 15.858,-6.762 6.343,0 11.698,2.274 15.916,6.762 4.237,4.502 6.388,10.323 6.388,17.307 0,6.995 -2.151,12.811 -6.388,17.299 z"
                 style="fill:#2e8555" />
            </g>
          </g>
        </g>
      </g>
      <g
         id="text4737"
         style="font-style:normal;font-weight:normal;font-size:5.62226963px;line-height:1.25;font-family:sans-serif;letter-spacing:0px;word-spacing:0px;fill:#4d4d4d;fill-opacity:1;stroke:none;stroke-width:0.14055675"
         aria-label="PLATFORM">
        <path
           id="path6479"
           style="font-style:normal;font-variant:normal;font-weight:bold;font-stretch:normal;font-family:'TeX Gyre Adventor';-inkscape-font-specification:'TeX Gyre Adventor Bold';letter-spacing:4.57781219px;fill:#4d4d4d;stroke-width:0.14055675"
           d="m 401.32524,47.252661 c 0,-0.477893 -0.2024,-0.871452 -0.56223,-1.09072 -0.23613,-0.140557 -0.51162,-0.191157 -1.06261,-0.191157 h -1.02887 v 4.154857 h 0.77025 v -1.579858 h 0.24738 c 0.59034,0 0.86021,-0.04498 1.09072,-0.185535 0.33734,-0.208024 0.54536,-0.629694 0.54536,-1.107587 z m -0.77587,0.01124 c 0,0.359825 -0.19116,0.54536 -0.8827,0.54536 h -0.22489 v -1.101965 h 0.25862 c 0.59034,0 0.84897,0.118068 0.84897,0.556605 z" />
        <path
           id="path6481"
           style="font-style:normal;font-variant:normal;font-weight:bold;font-stretch:normal;font-family:'TeX Gyre Adventor';-inkscape-font-specification:'TeX Gyre Adventor Bold';letter-spacing:4.57781219px;fill:#4d4d4d;stroke-width:0.14055675"
           d="m 408.44177,50.125641 v -0.736517 h -1.27063 v -3.41834 h -0.77025 v 4.154857 z" />
        <path
           id="path6483"
           style="font-style:normal;font-variant:normal;font-weight:bold;font-stretch:normal;font-family:'TeX Gyre Adventor';-inkscape-font-specification:'TeX Gyre Adventor Bold';letter-spacing:4.57781219px;fill:#4d4d4d;stroke-width:0.14055675"
           d="m 417.33099,50.125641 -1.74291,-4.154857 h -0.6072 l -1.73166,4.154857 h 0.84896 l 0.46103,-1.073854 h 1.47865 l 0.44416,1.073854 z m -1.60235,-1.810371 h -0.88832 l 0.44416,-1.259388 z" />
        <path
           id="path6485"
           style="font-style:normal;font-variant:normal;font-weight:bold;font-stretch:normal;font-family:'TeX Gyre Adventor';-inkscape-font-specification:'TeX Gyre Adventor Bold';letter-spacing:4.57781219px;fill:#4d4d4d;stroke-width:0.14055675"
           d="m 424.07996,46.707301 v -0.736517 h -2.31075 v 0.736517 h 0.77025 v 3.41834 h 0.77025 v -3.41834 z" />
        <path
           id="path6487"
           style="font-style:normal;font-variant:normal;font-weight:bold;font-stretch:normal;font-family:'TeX Gyre Adventor';-inkscape-font-specification:'TeX Gyre Adventor Bold';letter-spacing:4.57781219px;fill:#4d4d4d;stroke-width:0.14055675"
           d="m 431.16486,46.707301 v -0.736517 h -2.11397 v 4.154857 h 0.77025 v -1.703548 h 1.28188 v -0.736517 h -1.28188 v -0.978275 z" />
        <path
           id="path6489"
           style="font-style:normal;font-variant:normal;font-weight:bold;font-stretch:normal;font-family:'TeX Gyre Adventor';-inkscape-font-specification:'TeX Gyre Adventor Bold';letter-spacing:4.57781219px;fill:#4d4d4d;stroke-width:0.14055675"
           d="m 440.44553,48.045401 c 0,-1.186299 -0.95016,-2.147707 -2.13646,-2.147707 -1.2369,0 -2.19269,0.938919 -2.19269,2.153329 0,1.197544 0.96703,2.147707 2.18707,2.147707 1.20878,0 2.14208,-0.938919 2.14208,-2.153329 z m -0.77587,0.01125 c 0,0.798362 -0.58472,1.399945 -1.37184,1.399945 -0.78711,0 -1.40556,-0.61845 -1.40556,-1.405568 0,-0.803984 0.6072,-1.411189 1.40556,-1.411189 0.77026,0 1.37184,0.618449 1.37184,1.416812 z" />
        <path
           id="path6491"
           style="font-style:normal;font-variant:normal;font-weight:bold;font-stretch:normal;font-family:'TeX Gyre Adventor';-inkscape-font-specification:'TeX Gyre Adventor Bold';letter-spacing:4.57781219px;fill:#4d4d4d;stroke-width:0.14055675"
           d="m 448.44081,50.125641 -1.12446,-1.53488 c 0.74776,-0.185535 1.0851,-0.640938 1.0851,-1.287499 0,-0.421671 -0.1518,-0.781496 -0.43854,-1.023254 -0.26987,-0.230513 -0.56785,-0.309224 -1.1357,-0.309224 h -1.19754 v 4.154857 h 0.77025 v -1.591102 l 1.09072,1.591102 z m -0.81523,-2.79989 c 0,0.438537 -0.25301,0.629694 -0.84897,0.629694 h -0.37669 v -1.248144 h 0.34296 c 0.7309,0 0.8827,0.24738 0.8827,0.61845 z" />
        <path
           id="path6493"
           style="font-style:normal;font-variant:normal;font-weight:bold;font-stretch:normal;font-family:'TeX Gyre Adventor';-inkscape-font-specification:'TeX Gyre Adventor Bold';letter-spacing:4.57781219px;fill:#4d4d4d;stroke-width:0.14055675"
           d="m 457.80923,50.125641 v -4.154857 h -1.05699 l -1.10758,3.148471 -1.11883,-3.148471 h -1.05699 v 4.154857 h 0.77025 v -3.114738 l 1.0851,3.114738 h 0.62969 l 1.0851,-3.114738 v 3.114738 z" />
      </g>
      <path
         id="path4739"
         d="m 497.37322,29.465101 -3.04631,-0.717409 c 0.12728,0.38862 0.21251,0.796714 0.23876,1.223998 0.0361,0.609318 -0.0556,1.232182 -0.23199,1.783645 v 0.01016 c -0.005,0.0175 -0.01,0.03387 -0.01,0.05249 0,0.06632 0.0375,0.122484 0.092,0.153529 l 0.003,0.0071 c 0,0 0.003,8.47e-4 0.01,0.0025 0.0231,0.01044 0.0483,0.0175 0.0756,0.0175 0.0378,0 0.0697,-0.01524 0.0985,-0.03387 0.006,-8.46e-4 0.01,-0.0023 0.01,-0.0023 l 0.0703,-0.05757 0.0624,-0.04657 2.65599,-2.281485 c 0.0178,-0.01524 0.0268,-0.04036 0.0209,-0.06435 -0.006,-0.02286 -0.0254,-0.04121 -0.0485,-0.04741 z"
         style="fill:#4d4d4d;stroke-width:0.28222224" />
      <g
         id="g4743"
         transform="matrix(0.28222223,0,0,0.28222223,320.72355,-46.446752)"
         style="fill:#4d4d4d">
        <path
           id="path4741"
           d="m 525.613,245.592 -0.349,0.601 c -3.312,5.659 -1.396,12.964 4.267,16.281 l 3.506,2.047 c -0.804,1.502 -1.244,3.107 -1.359,4.719 l 46.998,7.384 z"
           style="fill:#4d4d4d" />
      </g>
      <path
         style="fill:#2e8555;fill-opacity:1;stroke-width:0.28222224"
         d="m 468.5112,49.294882 c 1.05269,1.099538 2.65655,1.38176 3.99231,0.79756 l 1.06821,-3.468229 c 4.2562,3.519875 10.55794,3.436902 14.71366,-0.422487 3.1496,-2.928056 4.22769,-7.245491 3.17641,-11.123507 1.15231,-0.560775 2.00716,-1.607255 2.30632,-2.863991 0.0175,-0.07112 0.0347,-0.141111 0.0485,-0.214771 0.015,-0.08269 0.0288,-0.1651 0.0384,-0.249767 0.0189,-0.147602 0.0308,-0.298027 0.0336,-0.450144 0,-0.01891 0.004,-0.03612 0.004,-0.05532 0,-0.004 -2.8e-4,-0.0071 -2.8e-4,-0.0099 0,-0.0048 2.8e-4,-0.01016 2.8e-4,-0.01411 0,-0.215053 -0.0209,-0.423333 -0.0528,-0.62992 -0.002,-0.01552 -0.004,-0.03076 -0.007,-0.04572 -0.33105,-2.031435 -2.12005,-3.585633 -4.28555,-3.585633 -0.004,0 -0.008,8.46e-4 -0.0116,8.46e-4 -0.005,0 -0.008,-8.46e-4 -0.0127,-8.46e-4 -0.0172,0 -0.0327,0.0031 -0.0497,0.0031 -0.0813,2.82e-4 -0.16369,0.0054 -0.24581,0.01157 -0.006,8.47e-4 -0.0133,0.0014 -0.0198,0.0023 -0.0945,0.0071 -0.18824,0.01863 -0.28081,0.03189 -0.0347,0.0054 -0.0703,0.0068 -0.10414,0.01185 -0.0144,0.0025 -0.0288,0.0017 -0.0426,0.0045 -0.006,0.0014 -0.013,0.0031 -0.0186,0.004 -0.0189,0.0045 -0.0375,0.0099 -0.0564,0.01298 -0.033,0.0071 -0.0657,0.01411 -0.0991,0.0223 -1.9716,0.413173 -3.45186,2.124569 -3.45186,4.181687 0,0.307904 0.044,0.607342 0.10866,0.897466 l 0.0449,0.187396 c 0.008,0.0302 0.0133,0.06124 0.0133,0.09596 0,0.194451 -0.15071,0.368017 -0.34996,0.346004 l -0.16482,-0.02342 -19.72733,-3.116016 -0.0302,0.203764 c -0.30536,1.920523 1.01262,3.733801 2.93511,4.037754 l 1.19013,0.187395 c -0.22295,1.87198 1.07386,3.606801 2.95007,3.901723 l 1.19042,0.188524 c -0.22239,1.871698 1.07272,3.606236 2.95119,3.903134 l 0.0514,0.0073 z"
         id="path4745" />
    </g>
  </g>
</svg>
