<?xml version="1.0" encoding="UTF-8" standalone="no"?>
<svg
   xmlns:dc="http://purl.org/dc/elements/1.1/"
   xmlns:cc="http://creativecommons.org/ns#"
   xmlns:rdf="http://www.w3.org/1999/02/22-rdf-syntax-ns#"
   xmlns:svg="http://www.w3.org/2000/svg"
   xmlns="http://www.w3.org/2000/svg"
   version="1.1"
   id="svg3478"
   viewBox="0 0 150.87175 128.09433"
   height="36.151066mm"
   width="42.579361mm">
  <defs
     id="defs3480" />
  <metadata
     id="metadata3483">
    <rdf:RDF>
      <cc:Work
         rdf:about="">
        <dc:format>image/svg+xml</dc:format>
        <dc:type
           rdf:resource="http://purl.org/dc/dcmitype/StillImage" />
        <dc:title></dc:title>
      </cc:Work>
    </rdf:RDF>
  </metadata>
  <g
     transform="translate(-215.99269,-311.17218)"
     id="layer1">
    <g
       transform="translate(183.4293,267.21918)"
       id="g3487">
      <g
         id="g3489">
        <path
           style="fill:#233e99"
           d="M 183.203,74.669 169.026,71.33 c 0.592,1.809 0.989,3.708 1.111,5.696 0.168,2.836 -0.259,5.734 -1.08,8.3 l 0,0.047 c -0.021,0.081 -0.046,0.157 -0.046,0.244 0,0.309 0.174,0.57 0.429,0.714 l 0.013,0.033 c 0,0 0.016,0.004 0.044,0.012 0.107,0.048 0.224,0.082 0.351,0.082 0.176,0 0.325,-0.071 0.458,-0.158 0.027,-0.004 0.046,-0.01 0.046,-0.01 l 0.327,-0.268 0.29,-0.217 12.36,-10.617 c 0.083,-0.071 0.125,-0.188 0.098,-0.299 -0.026,-0.106 -0.116,-0.191 -0.224,-0.22 z"
           id="path3491" />
        <g
           id="g3493">
          <path
             style="fill:#233e99"
             d="m 51.456,43.953 -0.458,0.79 c -4.35,7.433 -1.833,17.027 5.604,21.383 l 4.604,2.688 c -1.056,1.973 -1.634,4.081 -1.786,6.198 L 121.147,84.71 51.456,43.953 Z"
             id="path3495" />
        </g>
      </g>
      <path
         style="fill:#ef3e42"
         d="m 48.886,166.952 c 4.9,5.117 12.363,6.43 18.579,3.712 l 4.971,-16.141 c 19.807,16.38 49.133,15.994 68.474,-1.966 14.657,-13.626 19.675,-33.718 14.782,-51.766 5.363,-2.61 9.341,-7.479 10.733,-13.328 0.082,-0.331 0.162,-0.657 0.226,-0.999 0.069,-0.386 0.133,-0.769 0.178,-1.163 0.088,-0.687 0.144,-1.386 0.156,-2.095 0,-0.089 0.017,-0.169 0.017,-0.258 0,-0.019 -0.001,-0.033 -0.001,-0.046 0,-0.022 0.001,-0.047 0.001,-0.066 0,-1 -0.097,-1.97 -0.245,-2.932 -0.009,-0.072 -0.02,-0.144 -0.032,-0.213 -1.541,-9.453 -9.866,-16.687 -19.943,-16.687 -0.018,0 -0.035,0.004 -0.054,0.004 -0.021,0 -0.039,-0.004 -0.059,-0.004 -0.079,0 -0.152,0.014 -0.23,0.014 -0.378,10e-4 -0.762,0.024 -1.144,0.054 -0.03,0.004 -0.062,0.007 -0.093,0.01 -0.439,0.033 -0.875,0.087 -1.307,0.148 -0.161,0.025 -0.327,0.032 -0.485,0.055 -0.067,0.011 -0.134,0.008 -0.199,0.021 -0.031,0.007 -0.06,0.014 -0.087,0.018 -0.088,0.02 -0.174,0.045 -0.262,0.06 -0.153,0.033 -0.306,0.066 -0.461,0.104 -9.176,1.923 -16.065,9.888 -16.065,19.46 0,1.433 0.206,2.826 0.505,4.177 l 0.209,0.871 c 0.037,0.141 0.061,0.286 0.061,0.447 0,0.905 -0.702,1.713 -1.628,1.61 l -0.767,-0.109 -91.807,-14.5 -0.141,0.948 c -1.421,8.938 4.712,17.376 13.66,18.791 l 5.539,0.873 c -1.038,8.711 4.997,16.785 13.729,18.157 l 5.54,0.878 c -1.035,8.711 4.992,16.783 13.734,18.164 l 0.238,0.034 -36.322,33.663 z"
         id="path3497" />
    </g>
  </g>
</svg>
