<?xml version="1.0" encoding="UTF-8" standalone="no"?>
<svg
   xmlns:dc="http://purl.org/dc/elements/1.1/"
   xmlns:cc="http://creativecommons.org/ns#"
   xmlns:rdf="http://www.w3.org/1999/02/22-rdf-syntax-ns#"
   xmlns:svg="http://www.w3.org/2000/svg"
   xmlns="http://www.w3.org/2000/svg"
   version="1.1"
   id="svg4199"
   viewBox="0 0 460.20577 120.81599"
   height="34.096958mm"
   width="129.88029mm">
  <defs
     id="defs4201" />
  <metadata
     id="metadata4204">
    <rdf:RDF>
      <cc:Work
         rdf:about="">
        <dc:format>image/svg+xml</dc:format>
        <dc:type
           rdf:resource="http://purl.org/dc/dcmitype/StillImage" />
        <dc:title></dc:title>
      </cc:Work>
    </rdf:RDF>
  </metadata>
  <g
     transform="translate(58.674303,-457.66849)"
     id="layer1">
    <g
       transform="translate(-224.57097,212.07649)"
       id="g4748">
      <g
         id="g4750">
        <g
           id="g4752">
          <path
             style="fill:#ffffff"
             d="m 262.642,296.267 c 0.062,-0.186 0.031,-0.376 -0.074,-0.527 -0.108,-0.15 -0.284,-0.24 -0.47,-0.24 l -12.258,0 c -0.257,0 -0.486,0.17 -0.567,0.421 l -15.817,51.669 -0.256,-0.757 -17.412,-50.942 c -0.074,-0.23 -0.304,-0.391 -0.547,-0.391 l -11.843,0 c -0.19,0 -0.374,0.096 -0.475,0.249 -0.116,0.153 -0.144,0.354 -0.076,0.533 l 5.91,16.277 -0.032,0.089 -12.917,35.035 -0.229,-0.721 -16.152,-51.054 c -0.08,-0.241 -0.304,-0.409 -0.558,-0.409 l -12.392,0 c -0.186,0 -0.351,0.085 -0.467,0.24 -0.112,0.15 -0.143,0.349 -0.084,0.531 l 23.154,68.11 c 0.084,0.233 0.306,0.39 0.558,0.39 l 11.562,0 c 0.254,0 0.468,-0.149 0.555,-0.393 l 12.797,-35.522 12.67,35.522 c 0.078,0.238 0.298,0.393 0.549,0.393 l 11.712,0 c 0.251,0 0.47,-0.162 0.554,-0.409 l 22.605,-68.094 z"
             id="path4754" />
          <path
             style="fill:#ffffff"
             d="m 341.222,295.5 -10.351,0 c -0.279,0 -0.515,0.2 -0.574,0.473 l -1.507,7.371 -0.341,-0.373 c -2.061,-2.236 -4.776,-4.248 -8.074,-5.969 -3.959,-2.082 -8.721,-3.136 -14.154,-3.136 -9.935,0 -18.237,3.52 -24.676,10.473 -6.431,6.937 -9.692,15.618 -9.692,25.795 0,10.266 3.165,18.968 9.41,25.86 6.269,6.908 14.667,10.414 24.958,10.414 4.956,0 9.622,-1.073 13.884,-3.198 3.501,-1.755 6.307,-3.87 8.337,-6.291 l 0.346,-0.42 1.51,7.8 c 0.051,0.269 0.3,0.472 0.574,0.472 l 10.351,0 c 0.319,0 0.577,-0.261 0.577,-0.592 l 0,-68.098 c -0.001,-0.32 -0.259,-0.581 -0.578,-0.581 z m -17.939,51.819 c -4.086,4.569 -9.419,6.894 -15.847,6.894 -6.513,0 -11.861,-2.318 -15.903,-6.888 -4.054,-4.573 -6.112,-10.357 -6.112,-17.191 0,-6.827 2.059,-12.608 6.112,-17.179 4.036,-4.573 9.385,-6.89 15.903,-6.89 6.438,0 11.77,2.317 15.847,6.89 4.102,4.583 6.182,10.365 6.182,17.179 -10e-4,6.828 -2.081,12.608 -6.182,17.185 z"
             id="path4756" />
          <path
             style="fill:#ffffff"
             d="m 415.083,352.569 -36.28,0 35.771,-46.463 c 0.087,-0.098 0.127,-0.22 0.127,-0.353 l 0,-9.672 c 0,-0.32 -0.265,-0.582 -0.588,-0.582 l -49.161,0 c -0.322,0 -0.587,0.262 -0.587,0.582 l 0,11.035 c 0,0.32 0.265,0.582 0.587,0.582 l 32.46,0 -35.655,46.467 c -0.075,0.117 -0.118,0.236 -0.118,0.354 l 0,9.661 c 0,0.331 0.262,0.592 0.587,0.592 l 52.857,0 c 0.312,0 0.569,-0.261 0.569,-0.592 l 0,-11.028 c 0.001,-0.319 -0.257,-0.583 -0.569,-0.583 z"
             id="path4758" />
          <path
             style="fill:#ffffff"
             d="m 490.329,304.333 c -6.711,-6.947 -15.374,-10.467 -25.749,-10.467 -10.38,0 -19.023,3.52 -25.686,10.467 -6.661,6.926 -10.039,15.609 -10.039,25.801 0,10.202 3.378,18.882 10.039,25.799 6.663,6.951 15.306,10.475 25.686,10.475 10.375,0 19.036,-3.524 25.749,-10.475 6.707,-6.93 10.107,-15.608 10.107,-25.799 0,-10.184 -3.4,-18.863 -10.107,-25.801 z m -9.833,43.1 c -4.216,4.499 -9.573,6.78 -15.916,6.78 -6.334,0 -11.667,-2.275 -15.858,-6.764 -4.186,-4.501 -6.308,-10.319 -6.308,-17.315 0,-6.995 2.123,-12.818 6.308,-17.307 4.187,-4.487 9.52,-6.762 15.858,-6.762 6.343,0 11.698,2.274 15.916,6.762 4.237,4.502 6.388,10.323 6.388,17.307 0,6.995 -2.151,12.811 -6.388,17.299 z"
             id="path4760" />
        </g>
        <path
           style="fill:#ffffff"
           d="m 625.924,268.979 -10.794,-2.542 c 0.451,1.377 0.753,2.823 0.846,4.337 0.128,2.159 -0.197,4.366 -0.822,6.319 l 0,0.036 c -0.016,0.062 -0.035,0.12 -0.035,0.186 0,0.236 0.133,0.434 0.326,0.544 l 0.01,0.025 c 0,0 0.012,0.003 0.034,0.009 0.082,0.037 0.171,0.063 0.268,0.063 0.134,0 0.247,-0.055 0.349,-0.121 0.021,-0.003 0.035,-0.008 0.035,-0.008 l 0.249,-0.204 0.221,-0.165 9.411,-8.084 c 0.063,-0.054 0.095,-0.143 0.074,-0.228 -0.021,-0.08 -0.09,-0.145 -0.172,-0.167 z"
           id="path4762" />
        <g
           id="g4764">
          <path
             style="fill:#ffffff"
             d="m 525.613,245.592 -0.349,0.601 c -3.312,5.659 -1.396,12.964 4.267,16.281 l 3.506,2.047 c -0.804,1.502 -1.244,3.107 -1.359,4.719 l 46.998,7.384 -53.063,-31.032 z"
             id="path4766" />
        </g>
      </g>
      <path
         style="fill:#ffffff"
         d="m 523.657,339.242 c 3.73,3.896 9.413,4.896 14.146,2.827 l 3.785,-12.29 c 15.081,12.472 37.41,12.178 52.135,-1.497 11.16,-10.375 14.98,-25.673 11.255,-39.414 4.083,-1.987 7.112,-5.695 8.172,-10.148 0.062,-0.252 0.123,-0.5 0.172,-0.761 0.053,-0.293 0.102,-0.585 0.136,-0.885 0.067,-0.523 0.109,-1.056 0.119,-1.595 0,-0.067 0.013,-0.128 0.013,-0.196 0,-0.014 -10e-4,-0.025 -10e-4,-0.035 0,-0.018 10e-4,-0.037 10e-4,-0.051 0,-0.761 -0.074,-1.5 -0.187,-2.232 -0.007,-0.055 -0.015,-0.109 -0.024,-0.162 -1.173,-7.198 -7.512,-12.706 -15.185,-12.706 -0.014,0 -0.027,0.003 -0.041,0.003 -0.016,0 -0.03,-0.003 -0.045,-0.003 -0.061,0 -0.116,0.011 -0.176,0.011 -0.288,10e-4 -0.58,0.019 -0.871,0.041 -0.022,0.003 -0.047,0.006 -0.07,0.008 -0.335,0.025 -0.667,0.066 -0.995,0.113 -0.123,0.019 -0.249,0.024 -0.369,0.042 -0.051,0.008 -0.102,0.005 -0.151,0.015 -0.023,0.005 -0.046,0.011 -0.066,0.014 -0.067,0.016 -0.133,0.035 -0.2,0.046 -0.117,0.025 -0.233,0.05 -0.351,0.079 -6.986,1.464 -12.231,7.528 -12.231,14.817 0,1.091 0.156,2.152 0.385,3.18 l 0.159,0.664 c 0.028,0.107 0.047,0.217 0.047,0.34 0,0.689 -0.534,1.304 -1.24,1.226 l -0.584,-0.083 -69.9,-11.041 -0.107,0.722 c -1.082,6.805 3.588,13.23 10.4,14.307 l 4.217,0.664 c -0.79,6.633 3.805,12.78 10.453,13.825 l 4.218,0.668 c -0.788,6.632 3.801,12.778 10.457,13.83 l 0.182,0.026 -27.658,25.631 z"
         id="path4768" />
    </g>
  </g>
</svg>
