<?xml version="1.0" encoding="UTF-8" standalone="no"?>
<!-- Created with Inkscape (http://www.inkscape.org/) -->

<svg
   xmlns:dc="http://purl.org/dc/elements/1.1/"
   xmlns:cc="http://creativecommons.org/ns#"
   xmlns:rdf="http://www.w3.org/1999/02/22-rdf-syntax-ns#"
   xmlns:svg="http://www.w3.org/2000/svg"
   xmlns="http://www.w3.org/2000/svg"
   xmlns:sodipodi="http://sodipodi.sourceforge.net/DTD/sodipodi-0.dtd"
   xmlns:inkscape="http://www.inkscape.org/namespaces/inkscape"
   width="210mm"
   height="297mm"
   viewBox="0 0 210 297"
   version="1.1"
   id="svg5499"
   inkscape:version="0.92.4 (5da689c313, 2019-01-14)"
   sodipodi:docname="wazo-platform.002.svg">
  <defs
     id="defs5493" />
  <sodipodi:namedview
     id="base"
     pagecolor="#ffffff"
     bordercolor="#666666"
     borderopacity="1.0"
     inkscape:pageopacity="0.0"
     inkscape:pageshadow="2"
     inkscape:zoom="0.35"
     inkscape:cx="-81.428571"
     inkscape:cy="1360"
     inkscape:document-units="mm"
     inkscape:current-layer="layer1"
     showgrid="false"
     inkscape:window-width="1920"
     inkscape:window-height="1016"
     inkscape:window-x="1641"
     inkscape:window-y="1107"
     inkscape:window-maximized="1" />
  <metadata
     id="metadata5496">
    <rdf:RDF>
      <cc:Work
         rdf:about="">
        <dc:format>image/svg+xml</dc:format>
        <dc:type
           rdf:resource="http://purl.org/dc/dcmitype/StillImage" />
        <dc:title></dc:title>
      </cc:Work>
    </rdf:RDF>
  </metadata>
  <g
     inkscape:label="Layer 1"
     inkscape:groupmode="layer"
     id="layer1">
    <g
       transform="matrix(0.72201583,0,0,0.72201583,-258.83081,3.3613663)"
       id="g4717">
      <g
         id="g3863"
         transform="matrix(0.1698239,0,0,0.1698239,368.22767,3.1362911)"
         style="fill:#4d4d4d">
        <g
           id="g3861"
           transform="translate(41.119381,42.225205)"
           style="fill:#4d4d4d">
          <g
             id="g3859"
             style="fill:#4d4d4d">
            <g
               id="g3857"
               style="fill:#4d4d4d">
              <path
                 id="path3849"
                 d="m 262.642,296.267 c 0.062,-0.186 0.031,-0.376 -0.074,-0.527 -0.108,-0.15 -0.284,-0.24 -0.47,-0.24 H 249.84 c -0.257,0 -0.486,0.17 -0.567,0.421 l -15.817,51.669 -0.256,-0.757 -17.412,-50.942 c -0.074,-0.23 -0.304,-0.391 -0.547,-0.391 h -11.843 c -0.19,0 -0.374,0.096 -0.475,0.249 -0.116,0.153 -0.144,0.354 -0.076,0.533 l 5.91,16.277 -0.032,0.089 -12.917,35.035 -0.229,-0.721 -16.152,-51.054 c -0.08,-0.241 -0.304,-0.409 -0.558,-0.409 h -12.392 c -0.186,0 -0.351,0.085 -0.467,0.24 -0.112,0.15 -0.143,0.349 -0.084,0.531 l 23.154,68.11 c 0.084,0.233 0.306,0.39 0.558,0.39 H 201.2 c 0.254,0 0.468,-0.149 0.555,-0.393 l 12.797,-35.522 12.67,35.522 c 0.078,0.238 0.298,0.393 0.549,0.393 h 11.712 c 0.251,0 0.47,-0.162 0.554,-0.409 z"
                 inkscape:connector-curvature="0"
                 style="fill:#4d4d4d" />
              <path
                 id="path3851"
                 d="m 341.222,295.5 h -10.351 c -0.279,0 -0.515,0.2 -0.574,0.473 l -1.507,7.371 -0.341,-0.373 c -2.061,-2.236 -4.776,-4.248 -8.074,-5.969 -3.959,-2.082 -8.721,-3.136 -14.154,-3.136 -9.935,0 -18.237,3.52 -24.676,10.473 -6.431,6.937 -9.692,15.618 -9.692,25.795 0,10.266 3.165,18.968 9.41,25.86 6.269,6.908 14.667,10.414 24.958,10.414 4.956,0 9.622,-1.073 13.884,-3.198 3.501,-1.755 6.307,-3.87 8.337,-6.291 l 0.346,-0.42 1.51,7.8 c 0.051,0.269 0.3,0.472 0.574,0.472 h 10.351 c 0.319,0 0.577,-0.261 0.577,-0.592 v -68.098 c -0.001,-0.32 -0.259,-0.581 -0.578,-0.581 z m -17.939,51.819 c -4.086,4.569 -9.419,6.894 -15.847,6.894 -6.513,0 -11.861,-2.318 -15.903,-6.888 -4.054,-4.573 -6.112,-10.357 -6.112,-17.191 0,-6.827 2.059,-12.608 6.112,-17.179 4.036,-4.573 9.385,-6.89 15.903,-6.89 6.438,0 11.77,2.317 15.847,6.89 4.102,4.583 6.182,10.365 6.182,17.179 -10e-4,6.828 -2.081,12.608 -6.182,17.185 z"
                 inkscape:connector-curvature="0"
                 style="fill:#4d4d4d" />
              <path
                 id="path3853"
                 d="m 415.083,352.569 h -36.28 l 35.771,-46.463 c 0.087,-0.098 0.127,-0.22 0.127,-0.353 v -9.672 c 0,-0.32 -0.265,-0.582 -0.588,-0.582 h -49.161 c -0.322,0 -0.587,0.262 -0.587,0.582 v 11.035 c 0,0.32 0.265,0.582 0.587,0.582 h 32.46 l -35.655,46.467 c -0.075,0.117 -0.118,0.236 -0.118,0.354 v 9.661 c 0,0.331 0.262,0.592 0.587,0.592 h 52.857 c 0.312,0 0.569,-0.261 0.569,-0.592 v -11.028 c 0.001,-0.319 -0.257,-0.583 -0.569,-0.583 z"
                 inkscape:connector-curvature="0"
                 style="fill:#4d4d4d" />
              <path
                 id="path3855"
                 d="m 490.329,304.333 c -6.711,-6.947 -15.374,-10.467 -25.749,-10.467 -10.38,0 -19.023,3.52 -25.686,10.467 -6.661,6.926 -10.039,15.609 -10.039,25.801 0,10.202 3.378,18.882 10.039,25.799 6.663,6.951 15.306,10.475 25.686,10.475 10.375,0 19.036,-3.524 25.749,-10.475 6.707,-6.93 10.107,-15.608 10.107,-25.799 0,-10.184 -3.4,-18.863 -10.107,-25.801 z m -9.833,43.1 c -4.216,4.499 -9.573,6.78 -15.916,6.78 -6.334,0 -11.667,-2.275 -15.858,-6.764 -4.186,-4.501 -6.308,-10.319 -6.308,-17.315 0,-6.995 2.123,-12.818 6.308,-17.307 4.187,-4.487 9.52,-6.762 15.858,-6.762 6.343,0 11.698,2.274 15.916,6.762 4.237,4.502 6.388,10.323 6.388,17.307 0,6.995 -2.151,12.811 -6.388,17.299 z"
                 inkscape:connector-curvature="0"
                 style="fill:#4d4d4d" />
            </g>
          </g>
        </g>
      </g>
      <text
         id="text3867"
         y="79.165634"
         x="406.94211"
         style="font-style:normal;font-weight:normal;font-size:4.8678031px;line-height:1.25;font-family:sans-serif;letter-spacing:0px;word-spacing:0px;fill:#4d4d4d;fill-opacity:1;stroke:none;stroke-width:0.12169507"
         xml:space="preserve"><tspan
           style="font-style:normal;font-variant:normal;font-weight:bold;font-stretch:normal;font-family:'TeX Gyre Adventor';-inkscape-font-specification:'TeX Gyre Adventor Bold';letter-spacing:3.96350336px;fill:#4d4d4d;stroke-width:0.12169507"
           y="79.165634"
           x="406.94211"
           id="tspan3865"
           sodipodi:role="line">PLATFORM</tspan></text>
      <path
         id="path3869"
         d="m 449.26471,33.741413 -3.04631,-0.717409 c 0.12728,0.38862 0.21251,0.796714 0.23876,1.223998 0.0361,0.609318 -0.0556,1.232182 -0.23199,1.783645 v 0.01016 c -0.005,0.0175 -0.01,0.03387 -0.01,0.05249 0,0.06632 0.0375,0.122484 0.092,0.153529 l 0.003,0.0071 c 0,0 0.003,8.47e-4 0.01,0.0025 0.0231,0.01044 0.0483,0.0175 0.0756,0.0175 0.0378,0 0.0697,-0.01524 0.0985,-0.03387 0.006,-8.46e-4 0.01,-0.0023 0.01,-0.0023 l 0.0703,-0.05757 0.0624,-0.04657 2.65599,-2.281485 c 0.0178,-0.01524 0.0268,-0.04036 0.0209,-0.06435 -0.006,-0.02286 -0.0254,-0.04121 -0.0485,-0.04741 z"
         style="fill:#4d4d4d;stroke-width:0.28222224"
         inkscape:connector-curvature="0" />
      <g
         id="g3873"
         transform="matrix(0.28222223,0,0,0.28222223,272.61504,-42.17044)"
         style="fill:#4d4d4d">
        <path
           id="path3871"
           d="m 525.613,245.592 -0.349,0.601 c -3.312,5.659 -1.396,12.964 4.267,16.281 l 3.506,2.047 c -0.804,1.502 -1.244,3.107 -1.359,4.719 l 46.998,7.384 z"
           style="fill:#4d4d4d"
           inkscape:connector-curvature="0" />
      </g>
      <path
         inkscape:connector-curvature="0"
         style="fill:#70b800;fill-opacity:1;stroke-width:0.28222224"
         d="m 420.40269,53.571194 c 1.05269,1.099538 2.65655,1.38176 3.99231,0.79756 l 1.06821,-3.468229 c 4.2562,3.519875 10.55794,3.436902 14.71366,-0.422487 3.1496,-2.928056 4.22769,-7.245491 3.17641,-11.123507 1.15231,-0.560775 2.00716,-1.607255 2.30632,-2.863991 0.0175,-0.07112 0.0347,-0.141111 0.0485,-0.214771 0.015,-0.08269 0.0288,-0.1651 0.0384,-0.249767 0.0189,-0.147602 0.0308,-0.298027 0.0336,-0.450144 0,-0.01891 0.004,-0.03612 0.004,-0.05532 0,-0.004 -2.8e-4,-0.0071 -2.8e-4,-0.0099 0,-0.0048 2.8e-4,-0.01016 2.8e-4,-0.01411 0,-0.215053 -0.0209,-0.423333 -0.0528,-0.62992 -0.002,-0.01552 -0.004,-0.03076 -0.007,-0.04572 -0.33105,-2.031435 -2.12005,-3.585633 -4.28555,-3.585633 -0.004,0 -0.008,8.46e-4 -0.0116,8.46e-4 -0.005,0 -0.008,-8.46e-4 -0.0127,-8.46e-4 -0.0172,0 -0.0327,0.0031 -0.0497,0.0031 -0.0813,2.82e-4 -0.16369,0.0054 -0.24581,0.01157 -0.006,8.47e-4 -0.0133,0.0014 -0.0198,0.0023 -0.0945,0.0071 -0.18824,0.01863 -0.28081,0.03189 -0.0347,0.0054 -0.0703,0.0068 -0.10414,0.01185 -0.0144,0.0025 -0.0288,0.0017 -0.0426,0.0045 -0.006,0.0014 -0.013,0.0031 -0.0186,0.004 -0.0189,0.0045 -0.0375,0.0099 -0.0564,0.01298 -0.033,0.0071 -0.0657,0.01411 -0.0991,0.0223 -1.9716,0.413173 -3.45186,2.124569 -3.45186,4.181687 0,0.307904 0.044,0.607342 0.10866,0.897466 l 0.0449,0.187396 c 0.008,0.0302 0.0133,0.06124 0.0133,0.09596 0,0.194451 -0.15071,0.368017 -0.34996,0.346004 l -0.16482,-0.02342 -19.72733,-3.116016 -0.0302,0.203764 c -0.30536,1.920523 1.01262,3.733801 2.93511,4.037754 l 1.19013,0.187395 c -0.22295,1.87198 1.07386,3.606801 2.95007,3.901723 l 1.19042,0.188524 c -0.22239,1.871698 1.07272,3.606236 2.95119,3.903134 l 0.0514,0.0073 z"
         id="path3875" />
    </g>
    <g
       id="g4747"
       transform="matrix(0.72201583,0,0,0.72201583,-258.83081,61.217185)">
      <g
         style="fill:#4d4d4d"
         transform="matrix(0.1942298,0,0,0.1942298,354.01477,-36.87139)"
         id="g4733">
        <g
           style="fill:#4d4d4d"
           transform="translate(41.119381,42.225205)"
           id="g4731">
          <g
             style="fill:#4d4d4d"
             id="g4729">
            <g
               style="fill:#4d4d4d"
               id="g4727">
              <path
                 style="fill:#4d4d4d"
                 inkscape:connector-curvature="0"
                 d="m 262.642,296.267 c 0.062,-0.186 0.031,-0.376 -0.074,-0.527 -0.108,-0.15 -0.284,-0.24 -0.47,-0.24 H 249.84 c -0.257,0 -0.486,0.17 -0.567,0.421 l -15.817,51.669 -0.256,-0.757 -17.412,-50.942 c -0.074,-0.23 -0.304,-0.391 -0.547,-0.391 h -11.843 c -0.19,0 -0.374,0.096 -0.475,0.249 -0.116,0.153 -0.144,0.354 -0.076,0.533 l 5.91,16.277 -0.032,0.089 -12.917,35.035 -0.229,-0.721 -16.152,-51.054 c -0.08,-0.241 -0.304,-0.409 -0.558,-0.409 h -12.392 c -0.186,0 -0.351,0.085 -0.467,0.24 -0.112,0.15 -0.143,0.349 -0.084,0.531 l 23.154,68.11 c 0.084,0.233 0.306,0.39 0.558,0.39 H 201.2 c 0.254,0 0.468,-0.149 0.555,-0.393 l 12.797,-35.522 12.67,35.522 c 0.078,0.238 0.298,0.393 0.549,0.393 h 11.712 c 0.251,0 0.47,-0.162 0.554,-0.409 z"
                 id="path4719" />
              <path
                 style="fill:#4d4d4d"
                 inkscape:connector-curvature="0"
                 d="m 341.222,295.5 h -10.351 c -0.279,0 -0.515,0.2 -0.574,0.473 l -1.507,7.371 -0.341,-0.373 c -2.061,-2.236 -4.776,-4.248 -8.074,-5.969 -3.959,-2.082 -8.721,-3.136 -14.154,-3.136 -9.935,0 -18.237,3.52 -24.676,10.473 -6.431,6.937 -9.692,15.618 -9.692,25.795 0,10.266 3.165,18.968 9.41,25.86 6.269,6.908 14.667,10.414 24.958,10.414 4.956,0 9.622,-1.073 13.884,-3.198 3.501,-1.755 6.307,-3.87 8.337,-6.291 l 0.346,-0.42 1.51,7.8 c 0.051,0.269 0.3,0.472 0.574,0.472 h 10.351 c 0.319,0 0.577,-0.261 0.577,-0.592 v -68.098 c -0.001,-0.32 -0.259,-0.581 -0.578,-0.581 z m -17.939,51.819 c -4.086,4.569 -9.419,6.894 -15.847,6.894 -6.513,0 -11.861,-2.318 -15.903,-6.888 -4.054,-4.573 -6.112,-10.357 -6.112,-17.191 0,-6.827 2.059,-12.608 6.112,-17.179 4.036,-4.573 9.385,-6.89 15.903,-6.89 6.438,0 11.77,2.317 15.847,6.89 4.102,4.583 6.182,10.365 6.182,17.179 -10e-4,6.828 -2.081,12.608 -6.182,17.185 z"
                 id="path4721" />
              <path
                 style="fill:#4d4d4d"
                 inkscape:connector-curvature="0"
                 d="m 415.083,352.569 h -36.28 l 35.771,-46.463 c 0.087,-0.098 0.127,-0.22 0.127,-0.353 v -9.672 c 0,-0.32 -0.265,-0.582 -0.588,-0.582 h -49.161 c -0.322,0 -0.587,0.262 -0.587,0.582 v 11.035 c 0,0.32 0.265,0.582 0.587,0.582 h 32.46 l -35.655,46.467 c -0.075,0.117 -0.118,0.236 -0.118,0.354 v 9.661 c 0,0.331 0.262,0.592 0.587,0.592 h 52.857 c 0.312,0 0.569,-0.261 0.569,-0.592 v -11.028 c 0.001,-0.319 -0.257,-0.583 -0.569,-0.583 z"
                 id="path4723" />
              <path
                 style="fill:#4d4d4d"
                 inkscape:connector-curvature="0"
                 d="m 490.329,304.333 c -6.711,-6.947 -15.374,-10.467 -25.749,-10.467 -10.38,0 -19.023,3.52 -25.686,10.467 -6.661,6.926 -10.039,15.609 -10.039,25.801 0,10.202 3.378,18.882 10.039,25.799 6.663,6.951 15.306,10.475 25.686,10.475 10.375,0 19.036,-3.524 25.749,-10.475 6.707,-6.93 10.107,-15.608 10.107,-25.799 0,-10.184 -3.4,-18.863 -10.107,-25.801 z m -9.833,43.1 c -4.216,4.499 -9.573,6.78 -15.916,6.78 -6.334,0 -11.667,-2.275 -15.858,-6.764 -4.186,-4.501 -6.308,-10.319 -6.308,-17.315 0,-6.995 2.123,-12.818 6.308,-17.307 4.187,-4.487 9.52,-6.762 15.858,-6.762 6.343,0 11.698,2.274 15.916,6.762 4.237,4.502 6.388,10.323 6.388,17.307 0,6.995 -2.151,12.811 -6.388,17.299 z"
                 id="path4725" />
            </g>
          </g>
        </g>
      </g>
      <text
         xml:space="preserve"
         style="font-style:normal;font-weight:normal;font-size:5.62226963px;line-height:1.25;font-family:sans-serif;letter-spacing:0px;word-spacing:0px;fill:#4d4d4d;fill-opacity:1;stroke:none;stroke-width:0.14055675"
         x="398.28922"
         y="50.125641"
         id="text4737"><tspan
           sodipodi:role="line"
           id="tspan4735"
           x="398.28922"
           y="50.125641"
           style="font-style:normal;font-variant:normal;font-weight:bold;font-stretch:normal;font-family:'TeX Gyre Adventor';-inkscape-font-specification:'TeX Gyre Adventor Bold';letter-spacing:4.57781219px;fill:#4d4d4d;stroke-width:0.14055675">PLATFORM</tspan></text>
      <path
         inkscape:connector-curvature="0"
         style="fill:#4d4d4d;stroke-width:0.28222224"
         d="m 497.37322,29.465101 -3.04631,-0.717409 c 0.12728,0.38862 0.21251,0.796714 0.23876,1.223998 0.0361,0.609318 -0.0556,1.232182 -0.23199,1.783645 v 0.01016 c -0.005,0.0175 -0.01,0.03387 -0.01,0.05249 0,0.06632 0.0375,0.122484 0.092,0.153529 l 0.003,0.0071 c 0,0 0.003,8.47e-4 0.01,0.0025 0.0231,0.01044 0.0483,0.0175 0.0756,0.0175 0.0378,0 0.0697,-0.01524 0.0985,-0.03387 0.006,-8.46e-4 0.01,-0.0023 0.01,-0.0023 l 0.0703,-0.05757 0.0624,-0.04657 2.65599,-2.281485 c 0.0178,-0.01524 0.0268,-0.04036 0.0209,-0.06435 -0.006,-0.02286 -0.0254,-0.04121 -0.0485,-0.04741 z"
         id="path4739" />
      <g
         style="fill:#4d4d4d"
         transform="matrix(0.28222223,0,0,0.28222223,320.72355,-46.446752)"
         id="g4743">
        <path
           inkscape:connector-curvature="0"
           style="fill:#4d4d4d"
           d="m 525.613,245.592 -0.349,0.601 c -3.312,5.659 -1.396,12.964 4.267,16.281 l 3.506,2.047 c -0.804,1.502 -1.244,3.107 -1.359,4.719 l 46.998,7.384 z"
           id="path4741" />
      </g>
      <path
         id="path4745"
         d="m 468.5112,49.294882 c 1.05269,1.099538 2.65655,1.38176 3.99231,0.79756 l 1.06821,-3.468229 c 4.2562,3.519875 10.55794,3.436902 14.71366,-0.422487 3.1496,-2.928056 4.22769,-7.245491 3.17641,-11.123507 1.15231,-0.560775 2.00716,-1.607255 2.30632,-2.863991 0.0175,-0.07112 0.0347,-0.141111 0.0485,-0.214771 0.015,-0.08269 0.0288,-0.1651 0.0384,-0.249767 0.0189,-0.147602 0.0308,-0.298027 0.0336,-0.450144 0,-0.01891 0.004,-0.03612 0.004,-0.05532 0,-0.004 -2.8e-4,-0.0071 -2.8e-4,-0.0099 0,-0.0048 2.8e-4,-0.01016 2.8e-4,-0.01411 0,-0.215053 -0.0209,-0.423333 -0.0528,-0.62992 -0.002,-0.01552 -0.004,-0.03076 -0.007,-0.04572 -0.33105,-2.031435 -2.12005,-3.585633 -4.28555,-3.585633 -0.004,0 -0.008,8.46e-4 -0.0116,8.46e-4 -0.005,0 -0.008,-8.46e-4 -0.0127,-8.46e-4 -0.0172,0 -0.0327,0.0031 -0.0497,0.0031 -0.0813,2.82e-4 -0.16369,0.0054 -0.24581,0.01157 -0.006,8.47e-4 -0.0133,0.0014 -0.0198,0.0023 -0.0945,0.0071 -0.18824,0.01863 -0.28081,0.03189 -0.0347,0.0054 -0.0703,0.0068 -0.10414,0.01185 -0.0144,0.0025 -0.0288,0.0017 -0.0426,0.0045 -0.006,0.0014 -0.013,0.0031 -0.0186,0.004 -0.0189,0.0045 -0.0375,0.0099 -0.0564,0.01298 -0.033,0.0071 -0.0657,0.01411 -0.0991,0.0223 -1.9716,0.413173 -3.45186,2.124569 -3.45186,4.181687 0,0.307904 0.044,0.607342 0.10866,0.897466 l 0.0449,0.187396 c 0.008,0.0302 0.0133,0.06124 0.0133,0.09596 0,0.194451 -0.15071,0.368017 -0.34996,0.346004 l -0.16482,-0.02342 -19.72733,-3.116016 -0.0302,0.203764 c -0.30536,1.920523 1.01262,3.733801 2.93511,4.037754 l 1.19013,0.187395 c -0.22295,1.87198 1.07386,3.606801 2.95007,3.901723 l 1.19042,0.188524 c -0.22239,1.871698 1.07272,3.606236 2.95119,3.903134 l 0.0514,0.0073 z"
         style="fill:#70b800;fill-opacity:1;stroke-width:0.28222224"
         inkscape:connector-curvature="0" />
    </g>
    <rect
       y="114.55809"
       x="27.850449"
       height="67.364517"
       width="67.364517"
       id="rect4749"
       style="fill:#70b800;fill-opacity:1;stroke-width:0.15877967" />
    <g
       style="fill:#ffffff"
       id="g4781"
       transform="matrix(0.73669771,0,0,0.73669771,-256.47816,109.86078)">
      <g
         style="fill:#ffffff"
         transform="matrix(0.1698239,0,0,0.1698239,368.22767,3.1362911)"
         id="g4767">
        <g
           style="fill:#ffffff"
           transform="translate(41.119381,42.225205)"
           id="g4765">
          <g
             style="fill:#ffffff"
             id="g4763">
            <g
               style="fill:#ffffff"
               id="g4761">
              <path
                 style="fill:#ffffff"
                 inkscape:connector-curvature="0"
                 d="m 262.642,296.267 c 0.062,-0.186 0.031,-0.376 -0.074,-0.527 -0.108,-0.15 -0.284,-0.24 -0.47,-0.24 H 249.84 c -0.257,0 -0.486,0.17 -0.567,0.421 l -15.817,51.669 -0.256,-0.757 -17.412,-50.942 c -0.074,-0.23 -0.304,-0.391 -0.547,-0.391 h -11.843 c -0.19,0 -0.374,0.096 -0.475,0.249 -0.116,0.153 -0.144,0.354 -0.076,0.533 l 5.91,16.277 -0.032,0.089 -12.917,35.035 -0.229,-0.721 -16.152,-51.054 c -0.08,-0.241 -0.304,-0.409 -0.558,-0.409 h -12.392 c -0.186,0 -0.351,0.085 -0.467,0.24 -0.112,0.15 -0.143,0.349 -0.084,0.531 l 23.154,68.11 c 0.084,0.233 0.306,0.39 0.558,0.39 H 201.2 c 0.254,0 0.468,-0.149 0.555,-0.393 l 12.797,-35.522 12.67,35.522 c 0.078,0.238 0.298,0.393 0.549,0.393 h 11.712 c 0.251,0 0.47,-0.162 0.554,-0.409 z"
                 id="path4753" />
              <path
                 style="fill:#ffffff"
                 inkscape:connector-curvature="0"
                 d="m 341.222,295.5 h -10.351 c -0.279,0 -0.515,0.2 -0.574,0.473 l -1.507,7.371 -0.341,-0.373 c -2.061,-2.236 -4.776,-4.248 -8.074,-5.969 -3.959,-2.082 -8.721,-3.136 -14.154,-3.136 -9.935,0 -18.237,3.52 -24.676,10.473 -6.431,6.937 -9.692,15.618 -9.692,25.795 0,10.266 3.165,18.968 9.41,25.86 6.269,6.908 14.667,10.414 24.958,10.414 4.956,0 9.622,-1.073 13.884,-3.198 3.501,-1.755 6.307,-3.87 8.337,-6.291 l 0.346,-0.42 1.51,7.8 c 0.051,0.269 0.3,0.472 0.574,0.472 h 10.351 c 0.319,0 0.577,-0.261 0.577,-0.592 v -68.098 c -0.001,-0.32 -0.259,-0.581 -0.578,-0.581 z m -17.939,51.819 c -4.086,4.569 -9.419,6.894 -15.847,6.894 -6.513,0 -11.861,-2.318 -15.903,-6.888 -4.054,-4.573 -6.112,-10.357 -6.112,-17.191 0,-6.827 2.059,-12.608 6.112,-17.179 4.036,-4.573 9.385,-6.89 15.903,-6.89 6.438,0 11.77,2.317 15.847,6.89 4.102,4.583 6.182,10.365 6.182,17.179 -10e-4,6.828 -2.081,12.608 -6.182,17.185 z"
                 id="path4755" />
              <path
                 style="fill:#ffffff"
                 inkscape:connector-curvature="0"
                 d="m 415.083,352.569 h -36.28 l 35.771,-46.463 c 0.087,-0.098 0.127,-0.22 0.127,-0.353 v -9.672 c 0,-0.32 -0.265,-0.582 -0.588,-0.582 h -49.161 c -0.322,0 -0.587,0.262 -0.587,0.582 v 11.035 c 0,0.32 0.265,0.582 0.587,0.582 h 32.46 l -35.655,46.467 c -0.075,0.117 -0.118,0.236 -0.118,0.354 v 9.661 c 0,0.331 0.262,0.592 0.587,0.592 h 52.857 c 0.312,0 0.569,-0.261 0.569,-0.592 v -11.028 c 0.001,-0.319 -0.257,-0.583 -0.569,-0.583 z"
                 id="path4757" />
              <path
                 style="fill:#ffffff"
                 inkscape:connector-curvature="0"
                 d="m 490.329,304.333 c -6.711,-6.947 -15.374,-10.467 -25.749,-10.467 -10.38,0 -19.023,3.52 -25.686,10.467 -6.661,6.926 -10.039,15.609 -10.039,25.801 0,10.202 3.378,18.882 10.039,25.799 6.663,6.951 15.306,10.475 25.686,10.475 10.375,0 19.036,-3.524 25.749,-10.475 6.707,-6.93 10.107,-15.608 10.107,-25.799 0,-10.184 -3.4,-18.863 -10.107,-25.801 z m -9.833,43.1 c -4.216,4.499 -9.573,6.78 -15.916,6.78 -6.334,0 -11.667,-2.275 -15.858,-6.764 -4.186,-4.501 -6.308,-10.319 -6.308,-17.315 0,-6.995 2.123,-12.818 6.308,-17.307 4.187,-4.487 9.52,-6.762 15.858,-6.762 6.343,0 11.698,2.274 15.916,6.762 4.237,4.502 6.388,10.323 6.388,17.307 0,6.995 -2.151,12.811 -6.388,17.299 z"
                 id="path4759" />
            </g>
          </g>
        </g>
      </g>
      <text
         xml:space="preserve"
         style="font-style:normal;font-weight:normal;font-size:4.85430861px;line-height:1.25;font-family:sans-serif;letter-spacing:0px;word-spacing:0px;fill:#666666;fill-opacity:1;stroke:none;stroke-width:0.12135772"
         x="406.94302"
         y="79.155487"
         id="text4771"><tspan
           sodipodi:role="line"
           id="tspan4769"
           x="406.94302"
           y="79.155487"
           style="font-style:normal;font-variant:normal;font-weight:bold;font-stretch:normal;font-family:'TeX Gyre Adventor';-inkscape-font-specification:'TeX Gyre Adventor Bold';letter-spacing:3.95251608px;fill:#666666;stroke-width:0.12135772">PLATFORM</tspan></text>
      <path
         inkscape:connector-curvature="0"
         style="fill:#666666;stroke-width:0.28222224"
         d="m 449.26471,33.741413 -3.04631,-0.717409 c 0.12728,0.38862 0.21251,0.796714 0.23876,1.223998 0.0361,0.609318 -0.0556,1.232182 -0.23199,1.783645 v 0.01016 c -0.005,0.0175 -0.01,0.03387 -0.01,0.05249 0,0.06632 0.0375,0.122484 0.092,0.153529 l 0.003,0.0071 c 0,0 0.003,8.47e-4 0.01,0.0025 0.0231,0.01044 0.0483,0.0175 0.0756,0.0175 0.0378,0 0.0697,-0.01524 0.0985,-0.03387 0.006,-8.46e-4 0.01,-0.0023 0.01,-0.0023 l 0.0703,-0.05757 0.0624,-0.04657 2.65599,-2.281485 c 0.0178,-0.01524 0.0268,-0.04036 0.0209,-0.06435 -0.006,-0.02286 -0.0254,-0.04121 -0.0485,-0.04741 z"
         id="path4773" />
      <g
         style="fill:#666666"
         transform="matrix(0.28222223,0,0,0.28222223,272.61504,-42.17044)"
         id="g4777">
        <path
           inkscape:connector-curvature="0"
           style="fill:#666666"
           d="m 525.613,245.592 -0.349,0.601 c -3.312,5.659 -1.396,12.964 4.267,16.281 l 3.506,2.047 c -0.804,1.502 -1.244,3.107 -1.359,4.719 l 46.998,7.384 z"
           id="path4775" />
      </g>
      <path
         id="path4779"
         d="m 420.40269,53.571194 c 1.05269,1.099538 2.65655,1.38176 3.99231,0.79756 l 1.06821,-3.468229 c 4.2562,3.519875 10.55794,3.436902 14.71366,-0.422487 3.1496,-2.928056 4.22769,-7.245491 3.17641,-11.123507 1.15231,-0.560775 2.00716,-1.607255 2.30632,-2.863991 0.0175,-0.07112 0.0347,-0.141111 0.0485,-0.214771 0.015,-0.08269 0.0288,-0.1651 0.0384,-0.249767 0.0189,-0.147602 0.0308,-0.298027 0.0336,-0.450144 0,-0.01891 0.004,-0.03612 0.004,-0.05532 0,-0.004 -2.8e-4,-0.0071 -2.8e-4,-0.0099 0,-0.0048 2.8e-4,-0.01016 2.8e-4,-0.01411 0,-0.215053 -0.0209,-0.423333 -0.0528,-0.62992 -0.002,-0.01552 -0.004,-0.03076 -0.007,-0.04572 -0.33105,-2.031435 -2.12005,-3.585633 -4.28555,-3.585633 -0.004,0 -0.008,8.46e-4 -0.0116,8.46e-4 -0.005,0 -0.008,-8.46e-4 -0.0127,-8.46e-4 -0.0172,0 -0.0327,0.0031 -0.0497,0.0031 -0.0813,2.82e-4 -0.16369,0.0054 -0.24581,0.01157 -0.006,8.47e-4 -0.0133,0.0014 -0.0198,0.0023 -0.0945,0.0071 -0.18824,0.01863 -0.28081,0.03189 -0.0347,0.0054 -0.0703,0.0068 -0.10414,0.01185 -0.0144,0.0025 -0.0288,0.0017 -0.0426,0.0045 -0.006,0.0014 -0.013,0.0031 -0.0186,0.004 -0.0189,0.0045 -0.0375,0.0099 -0.0564,0.01298 -0.033,0.0071 -0.0657,0.01411 -0.0991,0.0223 -1.9716,0.413173 -3.45186,2.124569 -3.45186,4.181687 0,0.307904 0.044,0.607342 0.10866,0.897466 l 0.0449,0.187396 c 0.008,0.0302 0.0133,0.06124 0.0133,0.09596 0,0.194451 -0.15071,0.368017 -0.34996,0.346004 l -0.16482,-0.02342 -19.72733,-3.116016 -0.0302,0.203764 c -0.30536,1.920523 1.01262,3.733801 2.93511,4.037754 l 1.19013,0.187395 c -0.22295,1.87198 1.07386,3.606801 2.95007,3.901723 l 1.19042,0.188524 c -0.22239,1.871698 1.07272,3.606236 2.95119,3.903134 l 0.0514,0.0073 z"
         style="fill:#ffffff;fill-opacity:1;stroke-width:0.28222224"
         inkscape:connector-curvature="0" />
    </g>
    <g
       style="fill:#70b800;fill-opacity:1"
       transform="matrix(0.10250424,0,0,0.10250424,117.73492,54.691033)"
       id="g5023">
      <g
         style="fill:#70b800;fill-opacity:1"
         transform="translate(41.119381,42.225205)"
         id="g5021">
        <g
           style="fill:#70b800;fill-opacity:1"
           id="g5019">
          <g
             style="fill:#70b800;fill-opacity:1"
             id="g5017">
            <path
               style="fill:#70b800;fill-opacity:1"
               inkscape:connector-curvature="0"
               d="m 262.642,296.267 c 0.062,-0.186 0.031,-0.376 -0.074,-0.527 -0.108,-0.15 -0.284,-0.24 -0.47,-0.24 H 249.84 c -0.257,0 -0.486,0.17 -0.567,0.421 l -15.817,51.669 -0.256,-0.757 -17.412,-50.942 c -0.074,-0.23 -0.304,-0.391 -0.547,-0.391 h -11.843 c -0.19,0 -0.374,0.096 -0.475,0.249 -0.116,0.153 -0.144,0.354 -0.076,0.533 l 5.91,16.277 -0.032,0.089 -12.917,35.035 -0.229,-0.721 -16.152,-51.054 c -0.08,-0.241 -0.304,-0.409 -0.558,-0.409 h -12.392 c -0.186,0 -0.351,0.085 -0.467,0.24 -0.112,0.15 -0.143,0.349 -0.084,0.531 l 23.154,68.11 c 0.084,0.233 0.306,0.39 0.558,0.39 H 201.2 c 0.254,0 0.468,-0.149 0.555,-0.393 l 12.797,-35.522 12.67,35.522 c 0.078,0.238 0.298,0.393 0.549,0.393 h 11.712 c 0.251,0 0.47,-0.162 0.554,-0.409 z"
               id="path5009" />
            <path
               style="fill:#70b800;fill-opacity:1"
               inkscape:connector-curvature="0"
               d="m 341.222,295.5 h -10.351 c -0.279,0 -0.515,0.2 -0.574,0.473 l -1.507,7.371 -0.341,-0.373 c -2.061,-2.236 -4.776,-4.248 -8.074,-5.969 -3.959,-2.082 -8.721,-3.136 -14.154,-3.136 -9.935,0 -18.237,3.52 -24.676,10.473 -6.431,6.937 -9.692,15.618 -9.692,25.795 0,10.266 3.165,18.968 9.41,25.86 6.269,6.908 14.667,10.414 24.958,10.414 4.956,0 9.622,-1.073 13.884,-3.198 3.501,-1.755 6.307,-3.87 8.337,-6.291 l 0.346,-0.42 1.51,7.8 c 0.051,0.269 0.3,0.472 0.574,0.472 h 10.351 c 0.319,0 0.577,-0.261 0.577,-0.592 v -68.098 c -0.001,-0.32 -0.259,-0.581 -0.578,-0.581 z m -17.939,51.819 c -4.086,4.569 -9.419,6.894 -15.847,6.894 -6.513,0 -11.861,-2.318 -15.903,-6.888 -4.054,-4.573 -6.112,-10.357 -6.112,-17.191 0,-6.827 2.059,-12.608 6.112,-17.179 4.036,-4.573 9.385,-6.89 15.903,-6.89 6.438,0 11.77,2.317 15.847,6.89 4.102,4.583 6.182,10.365 6.182,17.179 -10e-4,6.828 -2.081,12.608 -6.182,17.185 z"
               id="path5011" />
            <path
               style="fill:#70b800;fill-opacity:1"
               inkscape:connector-curvature="0"
               d="m 415.083,352.569 h -36.28 l 35.771,-46.463 c 0.087,-0.098 0.127,-0.22 0.127,-0.353 v -9.672 c 0,-0.32 -0.265,-0.582 -0.588,-0.582 h -49.161 c -0.322,0 -0.587,0.262 -0.587,0.582 v 11.035 c 0,0.32 0.265,0.582 0.587,0.582 h 32.46 l -35.655,46.467 c -0.075,0.117 -0.118,0.236 -0.118,0.354 v 9.661 c 0,0.331 0.262,0.592 0.587,0.592 h 52.857 c 0.312,0 0.569,-0.261 0.569,-0.592 v -11.028 c 0.001,-0.319 -0.257,-0.583 -0.569,-0.583 z"
               id="path5013" />
            <path
               style="fill:#70b800;fill-opacity:1"
               inkscape:connector-curvature="0"
               d="m 490.329,304.333 c -6.711,-6.947 -15.374,-10.467 -25.749,-10.467 -10.38,0 -19.023,3.52 -25.686,10.467 -6.661,6.926 -10.039,15.609 -10.039,25.801 0,10.202 3.378,18.882 10.039,25.799 6.663,6.951 15.306,10.475 25.686,10.475 10.375,0 19.036,-3.524 25.749,-10.475 6.707,-6.93 10.107,-15.608 10.107,-25.799 0,-10.184 -3.4,-18.863 -10.107,-25.801 z m -9.833,43.1 c -4.216,4.499 -9.573,6.78 -15.916,6.78 -6.334,0 -11.667,-2.275 -15.858,-6.764 -4.186,-4.501 -6.308,-10.319 -6.308,-17.315 0,-6.995 2.123,-12.818 6.308,-17.307 4.187,-4.487 9.52,-6.762 15.858,-6.762 6.343,0 11.698,2.274 15.916,6.762 4.237,4.502 6.388,10.323 6.388,17.307 0,6.995 -2.151,12.811 -6.388,17.299 z"
               id="path5015" />
          </g>
        </g>
      </g>
    </g>
    <text
       xml:space="preserve"
       style="font-style:normal;font-weight:normal;font-size:2.9389832px;line-height:1.25;font-family:sans-serif;letter-spacing:0px;word-spacing:0px;fill:#666666;fill-opacity:1;stroke:none;stroke-width:0.07347457"
       x="141.10257"
       y="100.58228"
       id="text5027"><tspan
         sodipodi:role="line"
         id="tspan5025"
         x="141.10257"
         y="100.58228"
         style="font-style:normal;font-variant:normal;font-weight:bold;font-stretch:normal;font-family:'TeX Gyre Adventor';-inkscape-font-specification:'TeX Gyre Adventor Bold';letter-spacing:2.39300346px;fill:#666666;stroke-width:0.07347457">PLATFORM</tspan></text>
    <g
       id="g5060"
       transform="matrix(0.92694657,0,0,0.92694657,223.83481,-28.676167)">
      <circle
         r="14.833459"
         cy="108.65203"
         cx="-72.55928"
         id="path5039"
         style="fill:#70b800;fill-opacity:1;stroke-width:0.23494999" />
      <path
         id="path5029"
         d="m -62.100976,104.37768 -1.806056,-0.42532 c 0.07546,0.2304 0.12599,0.47234 0.141553,0.72566 0.02141,0.36125 -0.03296,0.73052 -0.137539,1.05747 v 0.006 c -0.003,0.0104 -0.0059,0.0201 -0.0059,0.0311 0,0.0393 0.02223,0.0726 0.05455,0.091 l 0.0018,0.005 c 0,0 0.0018,5e-4 0.0059,0.002 0.01369,0.006 0.02864,0.0104 0.04482,0.0104 0.02241,0 0.04133,-0.009 0.0584,-0.0201 0.0036,-5e-4 0.0059,-0.002 0.0059,-0.002 l 0.04168,-0.0341 0.03699,-0.0276 1.574648,-1.35262 c 0.01055,-0.009 0.01589,-0.0239 0.01239,-0.0382 -0.0036,-0.0136 -0.01506,-0.0244 -0.02875,-0.0281 z"
         style="fill:#666666;stroke-width:0.16732015"
         inkscape:connector-curvature="0" />
      <g
         id="g5033"
         transform="matrix(0.16732014,0,0,0.16732014,-166.83066,59.372078)"
         style="fill:#666666">
        <path
           id="path5031"
           d="m 525.613,245.592 -0.349,0.601 c -3.312,5.659 -1.396,12.964 4.267,16.281 l 3.506,2.047 c -0.804,1.502 -1.244,3.107 -1.359,4.719 l 46.998,7.384 z"
           style="fill:#666666"
           inkscape:connector-curvature="0" />
      </g>
      <path
         inkscape:connector-curvature="0"
         style="fill:#ffffff;fill-opacity:1;stroke-width:0.16732015"
         d="m -79.212304,116.1341 c 0.624105,0.65188 1.57498,0.8192 2.366907,0.47285 l 0.633306,-2.0562 c 2.523359,2.08682 6.25945,2.03762 8.723238,-0.25048 1.867292,-1.73595 2.506456,-4.29561 1.883187,-6.59476 0.683166,-0.33246 1.189978,-0.95288 1.367341,-1.69796 0.01037,-0.0422 0.02057,-0.0837 0.02875,-0.12733 0.0089,-0.049 0.01707,-0.0979 0.02276,-0.14807 0.01121,-0.0875 0.01826,-0.1767 0.01992,-0.26688 0,-0.0112 0.0024,-0.0214 0.0024,-0.0328 0,-0.003 -1.66e-4,-0.005 -1.66e-4,-0.005 0,-0.003 1.66e-4,-0.006 1.66e-4,-0.008 0,-0.12749 -0.01239,-0.25098 -0.0313,-0.37346 -0.0012,-0.009 -0.0024,-0.0182 -0.0042,-0.0271 -0.196269,-1.20437 -1.256907,-2.1258 -2.54076,-2.1258 -0.0024,0 -0.0047,5e-4 -0.0069,5e-4 -0.003,0 -0.0047,-5e-4 -0.0076,-5e-4 -0.0102,0 -0.01938,0.002 -0.02946,0.002 -0.0482,1.7e-4 -0.09705,0.004 -0.145733,0.007 -0.0036,5e-4 -0.0079,8.3e-4 -0.01174,0.002 -0.05603,0.005 -0.111601,0.011 -0.166483,0.0189 -0.02058,0.004 -0.04168,0.004 -0.06174,0.007 -0.0086,0.002 -0.01707,9.1e-4 -0.02526,0.003 -0.0036,8.3e-4 -0.0077,0.002 -0.01103,0.003 -0.01121,0.003 -0.02223,0.005 -0.03344,0.007 -0.01957,0.005 -0.03895,0.008 -0.05875,0.0132 -1.168896,0.24495 -2.046492,1.25958 -2.046492,2.47918 0,0.18254 0.02609,0.36008 0.06442,0.53207 l 0.02662,0.11111 c 0.0047,0.0179 0.0079,0.0363 0.0079,0.0569 0,0.11529 -0.08935,0.21819 -0.207479,0.20514 l -0.09772,-0.0139 -11.695676,-1.84738 -0.01791,0.1208 c -0.181038,1.13862 0.600348,2.21365 1.740129,2.39385 l 0.705588,0.11111 c -0.132179,1.10983 0.636656,2.13834 1.748998,2.3132 l 0.70576,0.11177 c -0.131847,1.10966 0.635981,2.13802 1.749663,2.31403 l 0.03047,0.005 z"
         id="path5035" />
    </g>
    <g
       id="g5076"
       transform="matrix(0.14999895,0,0,0.14999895,92.4391,63.693325)"
       style="fill:#70b800;fill-opacity:1">
      <g
         id="g5074"
         transform="translate(41.119381,42.225205)"
         style="fill:#70b800;fill-opacity:1">
        <g
           id="g5072"
           style="fill:#70b800;fill-opacity:1">
          <g
             id="g5070"
             style="fill:#70b800;fill-opacity:1">
            <path
               id="path5062"
               d="m 262.642,296.267 c 0.062,-0.186 0.031,-0.376 -0.074,-0.527 -0.108,-0.15 -0.284,-0.24 -0.47,-0.24 H 249.84 c -0.257,0 -0.486,0.17 -0.567,0.421 l -15.817,51.669 -0.256,-0.757 -17.412,-50.942 c -0.074,-0.23 -0.304,-0.391 -0.547,-0.391 h -11.843 c -0.19,0 -0.374,0.096 -0.475,0.249 -0.116,0.153 -0.144,0.354 -0.076,0.533 l 5.91,16.277 -0.032,0.089 -12.917,35.035 -0.229,-0.721 -16.152,-51.054 c -0.08,-0.241 -0.304,-0.409 -0.558,-0.409 h -12.392 c -0.186,0 -0.351,0.085 -0.467,0.24 -0.112,0.15 -0.143,0.349 -0.084,0.531 l 23.154,68.11 c 0.084,0.233 0.306,0.39 0.558,0.39 H 201.2 c 0.254,0 0.468,-0.149 0.555,-0.393 l 12.797,-35.522 12.67,35.522 c 0.078,0.238 0.298,0.393 0.549,0.393 h 11.712 c 0.251,0 0.47,-0.162 0.554,-0.409 z"
               inkscape:connector-curvature="0"
               style="fill:#70b800;fill-opacity:1" />
            <path
               id="path5064"
               d="m 341.222,295.5 h -10.351 c -0.279,0 -0.515,0.2 -0.574,0.473 l -1.507,7.371 -0.341,-0.373 c -2.061,-2.236 -4.776,-4.248 -8.074,-5.969 -3.959,-2.082 -8.721,-3.136 -14.154,-3.136 -9.935,0 -18.237,3.52 -24.676,10.473 -6.431,6.937 -9.692,15.618 -9.692,25.795 0,10.266 3.165,18.968 9.41,25.86 6.269,6.908 14.667,10.414 24.958,10.414 4.956,0 9.622,-1.073 13.884,-3.198 3.501,-1.755 6.307,-3.87 8.337,-6.291 l 0.346,-0.42 1.51,7.8 c 0.051,0.269 0.3,0.472 0.574,0.472 h 10.351 c 0.319,0 0.577,-0.261 0.577,-0.592 v -68.098 c -0.001,-0.32 -0.259,-0.581 -0.578,-0.581 z m -17.939,51.819 c -4.086,4.569 -9.419,6.894 -15.847,6.894 -6.513,0 -11.861,-2.318 -15.903,-6.888 -4.054,-4.573 -6.112,-10.357 -6.112,-17.191 0,-6.827 2.059,-12.608 6.112,-17.179 4.036,-4.573 9.385,-6.89 15.903,-6.89 6.438,0 11.77,2.317 15.847,6.89 4.102,4.583 6.182,10.365 6.182,17.179 -10e-4,6.828 -2.081,12.608 -6.182,17.185 z"
               inkscape:connector-curvature="0"
               style="fill:#70b800;fill-opacity:1" />
            <path
               id="path5066"
               d="m 415.083,352.569 h -36.28 l 35.771,-46.463 c 0.087,-0.098 0.127,-0.22 0.127,-0.353 v -9.672 c 0,-0.32 -0.265,-0.582 -0.588,-0.582 h -49.161 c -0.322,0 -0.587,0.262 -0.587,0.582 v 11.035 c 0,0.32 0.265,0.582 0.587,0.582 h 32.46 l -35.655,46.467 c -0.075,0.117 -0.118,0.236 -0.118,0.354 v 9.661 c 0,0.331 0.262,0.592 0.587,0.592 h 52.857 c 0.312,0 0.569,-0.261 0.569,-0.592 v -11.028 c 0.001,-0.319 -0.257,-0.583 -0.569,-0.583 z"
               inkscape:connector-curvature="0"
               style="fill:#70b800;fill-opacity:1" />
            <path
               id="path5068"
               d="m 490.329,304.333 c -6.711,-6.947 -15.374,-10.467 -25.749,-10.467 -10.38,0 -19.023,3.52 -25.686,10.467 -6.661,6.926 -10.039,15.609 -10.039,25.801 0,10.202 3.378,18.882 10.039,25.799 6.663,6.951 15.306,10.475 25.686,10.475 10.375,0 19.036,-3.524 25.749,-10.475 6.707,-6.93 10.107,-15.608 10.107,-25.799 0,-10.184 -3.4,-18.863 -10.107,-25.801 z m -9.833,43.1 c -4.216,4.499 -9.573,6.78 -15.916,6.78 -6.334,0 -11.667,-2.275 -15.858,-6.764 -4.186,-4.501 -6.308,-10.319 -6.308,-17.315 0,-6.995 2.123,-12.818 6.308,-17.307 4.187,-4.487 9.52,-6.762 15.858,-6.762 6.343,0 11.698,2.274 15.916,6.762 4.237,4.502 6.388,10.323 6.388,17.307 0,6.995 -2.151,12.811 -6.388,17.299 z"
               inkscape:connector-curvature="0"
               style="fill:#70b800;fill-opacity:1" />
          </g>
        </g>
      </g>
    </g>
    <text
       id="text5080"
       y="130.85713"
       x="126.63311"
       style="font-style:normal;font-weight:normal;font-size:4.31288671px;line-height:1.25;font-family:sans-serif;letter-spacing:0px;word-spacing:0px;fill:#666666;fill-opacity:1;stroke:none;stroke-width:0.10782219"
       xml:space="preserve"><tspan
         style="font-style:normal;font-variant:normal;font-weight:bold;font-stretch:normal;font-family:'TeX Gyre Adventor';-inkscape-font-specification:'TeX Gyre Adventor Bold';letter-spacing:3.5116744px;fill:#666666;stroke-width:0.10782219"
         y="130.85713"
         x="126.63311"
         id="tspan5078"
         sodipodi:role="line">PLATFORM</tspan></text>
    <g
       transform="matrix(0.69947172,0,0,0.69947172,297.8532,-102.02436)"
       id="g5092">
      <circle
         style="fill:#70b800;fill-opacity:1;stroke-width:0.23494999"
         id="circle5082"
         cx="-157.64992"
         cy="319.97214"
         r="14.833459" />
      <path
         inkscape:connector-curvature="0"
         style="fill:#666666;stroke-width:0.17178084"
         d="m -147.37451,315.39675 -1.8542,-0.43667 c 0.0775,0.23655 0.12935,0.48494 0.14533,0.74502 0.022,0.37088 -0.0338,0.74999 -0.14121,1.08565 v 0.007 c -0.003,0.0106 -0.006,0.0206 -0.006,0.032 0,0.0404 0.0228,0.0745 0.056,0.0935 l 0.002,0.005 c 0,0 0.002,5.2e-4 0.006,0.002 0.0141,0.007 0.0294,0.0107 0.046,0.0107 0.023,0 0.0424,-0.009 0.0599,-0.0207 0.004,-5.1e-4 0.006,-0.002 0.006,-0.002 l 0.0428,-0.0351 0.038,-0.0283 1.61663,-1.38868 c 0.0108,-0.009 0.0163,-0.0246 0.0127,-0.0392 -0.004,-0.0139 -0.0155,-0.025 -0.0295,-0.0289 z"
         id="path5084" />
      <g
         style="fill:#666666"
         transform="matrix(0.17178084,0,0,0.17178084,-254.89626,269.19132)"
         id="g5088">
        <path
           inkscape:connector-curvature="0"
           style="fill:#666666"
           d="m 525.613,245.592 -0.349,0.601 c -3.312,5.659 -1.396,12.964 4.267,16.281 l 3.506,2.047 c -0.804,1.502 -1.244,3.107 -1.359,4.719 l 46.998,7.384 z"
           id="path5086" />
      </g>
      <path
         id="path5090"
         d="m -164.94202,327.46659 c 0.64075,0.66926 1.61697,0.84104 2.43001,0.48545 l 0.65019,-2.11102 c 2.59063,2.14246 6.42633,2.09195 8.9558,-0.25715 1.91707,-1.78223 2.57327,-4.41012 1.93339,-6.77057 0.70138,-0.34133 1.2217,-0.97829 1.40379,-1.74323 0.0106,-0.0433 0.0211,-0.0859 0.0295,-0.13073 0.009,-0.0503 0.0175,-0.10049 0.0234,-0.15202 0.0115,-0.0898 0.0188,-0.1814 0.0205,-0.27399 0,-0.0115 0.002,-0.022 0.002,-0.0336 0,-0.003 -1.7e-4,-0.005 -1.7e-4,-0.006 0,-0.003 1.7e-4,-0.007 1.7e-4,-0.008 0,-0.1309 -0.0127,-0.25768 -0.0321,-0.38342 -0.001,-0.009 -0.002,-0.0187 -0.004,-0.0279 -0.2015,-1.23648 -1.29041,-2.18248 -2.60849,-2.18248 -0.002,0 -0.005,5.2e-4 -0.007,5.2e-4 -0.003,0 -0.005,-5.2e-4 -0.008,-5.2e-4 -0.0105,0 -0.0199,0.002 -0.0302,0.002 -0.0495,1.7e-4 -0.0996,0.004 -0.14962,0.007 -0.004,5.2e-4 -0.008,8.5e-4 -0.0121,0.002 -0.0575,0.005 -0.11458,0.0113 -0.17092,0.0194 -0.0211,0.004 -0.0428,0.004 -0.0634,0.007 -0.009,0.002 -0.0175,9.4e-4 -0.0259,0.003 -0.004,8.5e-4 -0.008,0.002 -0.0113,0.003 -0.0115,0.003 -0.0228,0.006 -0.0343,0.007 -0.0201,0.005 -0.04,0.008 -0.0603,0.0136 -1.20006,0.25149 -2.10105,1.29316 -2.10105,2.54528 0,0.18741 0.0268,0.36967 0.0661,0.54626 l 0.0273,0.11406 c 0.005,0.0184 0.008,0.0373 0.008,0.0584 0,0.11835 -0.0917,0.224 -0.21301,0.2106 l -0.10032,-0.0143 -12.00748,-1.89663 -0.0184,0.12402 c -0.18587,1.16897 0.61635,2.27267 1.78652,2.45767 l 0.7244,0.11407 c -0.13571,1.13942 0.65363,2.19535 1.79562,2.37487 l 0.72458,0.11475 c -0.13536,1.13924 0.65293,2.19501 1.79631,2.37572 l 0.0313,0.005 z"
         style="fill:#ffffff;fill-opacity:1;stroke-width:0.17178084"
         inkscape:connector-curvature="0" />
    </g>
    <rect
       style="fill:#70b800;fill-opacity:1;stroke-width:0.4527761"
       id="rect5661"
       width="192.09666"
       height="192.09666"
       x="-269.99478"
       y="-37.38834" />
    <g
       transform="matrix(2.1007672,0,0,2.1007672,-1080.7863,-50.783187)"
       id="g5691"
       style="fill:#ffffff">
      <g
         id="g5677"
         transform="matrix(0.1698239,0,0,0.1698239,368.22767,3.1362911)"
         style="fill:#ffffff">
        <g
           id="g5675"
           transform="translate(41.119381,42.225205)"
           style="fill:#ffffff">
          <g
             id="g5673"
             style="fill:#ffffff">
            <g
               id="g5671"
               style="fill:#ffffff">
              <path
                 id="path5663"
                 d="m 262.642,296.267 c 0.062,-0.186 0.031,-0.376 -0.074,-0.527 -0.108,-0.15 -0.284,-0.24 -0.47,-0.24 H 249.84 c -0.257,0 -0.486,0.17 -0.567,0.421 l -15.817,51.669 -0.256,-0.757 -17.412,-50.942 c -0.074,-0.23 -0.304,-0.391 -0.547,-0.391 h -11.843 c -0.19,0 -0.374,0.096 -0.475,0.249 -0.116,0.153 -0.144,0.354 -0.076,0.533 l 5.91,16.277 -0.032,0.089 -12.917,35.035 -0.229,-0.721 -16.152,-51.054 c -0.08,-0.241 -0.304,-0.409 -0.558,-0.409 h -12.392 c -0.186,0 -0.351,0.085 -0.467,0.24 -0.112,0.15 -0.143,0.349 -0.084,0.531 l 23.154,68.11 c 0.084,0.233 0.306,0.39 0.558,0.39 H 201.2 c 0.254,0 0.468,-0.149 0.555,-0.393 l 12.797,-35.522 12.67,35.522 c 0.078,0.238 0.298,0.393 0.549,0.393 h 11.712 c 0.251,0 0.47,-0.162 0.554,-0.409 z"
                 inkscape:connector-curvature="0"
                 style="fill:#ffffff" />
              <path
                 id="path5665"
                 d="m 341.222,295.5 h -10.351 c -0.279,0 -0.515,0.2 -0.574,0.473 l -1.507,7.371 -0.341,-0.373 c -2.061,-2.236 -4.776,-4.248 -8.074,-5.969 -3.959,-2.082 -8.721,-3.136 -14.154,-3.136 -9.935,0 -18.237,3.52 -24.676,10.473 -6.431,6.937 -9.692,15.618 -9.692,25.795 0,10.266 3.165,18.968 9.41,25.86 6.269,6.908 14.667,10.414 24.958,10.414 4.956,0 9.622,-1.073 13.884,-3.198 3.501,-1.755 6.307,-3.87 8.337,-6.291 l 0.346,-0.42 1.51,7.8 c 0.051,0.269 0.3,0.472 0.574,0.472 h 10.351 c 0.319,0 0.577,-0.261 0.577,-0.592 v -68.098 c -0.001,-0.32 -0.259,-0.581 -0.578,-0.581 z m -17.939,51.819 c -4.086,4.569 -9.419,6.894 -15.847,6.894 -6.513,0 -11.861,-2.318 -15.903,-6.888 -4.054,-4.573 -6.112,-10.357 -6.112,-17.191 0,-6.827 2.059,-12.608 6.112,-17.179 4.036,-4.573 9.385,-6.89 15.903,-6.89 6.438,0 11.77,2.317 15.847,6.89 4.102,4.583 6.182,10.365 6.182,17.179 -10e-4,6.828 -2.081,12.608 -6.182,17.185 z"
                 inkscape:connector-curvature="0"
                 style="fill:#ffffff" />
              <path
                 id="path5667"
                 d="m 415.083,352.569 h -36.28 l 35.771,-46.463 c 0.087,-0.098 0.127,-0.22 0.127,-0.353 v -9.672 c 0,-0.32 -0.265,-0.582 -0.588,-0.582 h -49.161 c -0.322,0 -0.587,0.262 -0.587,0.582 v 11.035 c 0,0.32 0.265,0.582 0.587,0.582 h 32.46 l -35.655,46.467 c -0.075,0.117 -0.118,0.236 -0.118,0.354 v 9.661 c 0,0.331 0.262,0.592 0.587,0.592 h 52.857 c 0.312,0 0.569,-0.261 0.569,-0.592 v -11.028 c 0.001,-0.319 -0.257,-0.583 -0.569,-0.583 z"
                 inkscape:connector-curvature="0"
                 style="fill:#ffffff" />
              <path
                 id="path5669"
                 d="m 490.329,304.333 c -6.711,-6.947 -15.374,-10.467 -25.749,-10.467 -10.38,0 -19.023,3.52 -25.686,10.467 -6.661,6.926 -10.039,15.609 -10.039,25.801 0,10.202 3.378,18.882 10.039,25.799 6.663,6.951 15.306,10.475 25.686,10.475 10.375,0 19.036,-3.524 25.749,-10.475 6.707,-6.93 10.107,-15.608 10.107,-25.799 0,-10.184 -3.4,-18.863 -10.107,-25.801 z m -9.833,43.1 c -4.216,4.499 -9.573,6.78 -15.916,6.78 -6.334,0 -11.667,-2.275 -15.858,-6.764 -4.186,-4.501 -6.308,-10.319 -6.308,-17.315 0,-6.995 2.123,-12.818 6.308,-17.307 4.187,-4.487 9.52,-6.762 15.858,-6.762 6.343,0 11.698,2.274 15.916,6.762 4.237,4.502 6.388,10.323 6.388,17.307 0,6.995 -2.151,12.811 -6.388,17.299 z"
                 inkscape:connector-curvature="0"
                 style="fill:#ffffff" />
            </g>
          </g>
        </g>
      </g>
      <text
         id="text5681"
         y="79.155487"
         x="406.94302"
         style="font-style:normal;font-weight:normal;font-size:4.85430861px;line-height:1.25;font-family:sans-serif;letter-spacing:0px;word-spacing:0px;fill:#666666;fill-opacity:1;stroke:none;stroke-width:0.12135772"
         xml:space="preserve"><tspan
           style="font-style:normal;font-variant:normal;font-weight:bold;font-stretch:normal;font-family:'TeX Gyre Adventor';-inkscape-font-specification:'TeX Gyre Adventor Bold';letter-spacing:3.95251608px;fill:#666666;stroke-width:0.12135772"
           y="79.155487"
           x="406.94302"
           id="tspan5679"
           sodipodi:role="line">PLATFORM</tspan></text>
      <path
         id="path5683"
         d="m 449.26471,33.741413 -3.04631,-0.717409 c 0.12728,0.38862 0.21251,0.796714 0.23876,1.223998 0.0361,0.609318 -0.0556,1.232182 -0.23199,1.783645 v 0.01016 c -0.005,0.0175 -0.01,0.03387 -0.01,0.05249 0,0.06632 0.0375,0.122484 0.092,0.153529 l 0.003,0.0071 c 0,0 0.003,8.47e-4 0.01,0.0025 0.0231,0.01044 0.0483,0.0175 0.0756,0.0175 0.0378,0 0.0697,-0.01524 0.0985,-0.03387 0.006,-8.46e-4 0.01,-0.0023 0.01,-0.0023 l 0.0703,-0.05757 0.0624,-0.04657 2.65599,-2.281485 c 0.0178,-0.01524 0.0268,-0.04036 0.0209,-0.06435 -0.006,-0.02286 -0.0254,-0.04121 -0.0485,-0.04741 z"
         style="fill:#666666;stroke-width:0.28222224"
         inkscape:connector-curvature="0" />
      <g
         id="g5687"
         transform="matrix(0.28222223,0,0,0.28222223,272.61504,-42.17044)"
         style="fill:#666666">
        <path
           id="path5685"
           d="m 525.613,245.592 -0.349,0.601 c -3.312,5.659 -1.396,12.964 4.267,16.281 l 3.506,2.047 c -0.804,1.502 -1.244,3.107 -1.359,4.719 l 46.998,7.384 z"
           style="fill:#666666"
           inkscape:connector-curvature="0" />
      </g>
      <path
         inkscape:connector-curvature="0"
         style="fill:#ffffff;fill-opacity:1;stroke-width:0.28222224"
         d="m 420.40269,53.571194 c 1.05269,1.099538 2.65655,1.38176 3.99231,0.79756 l 1.06821,-3.468229 c 4.2562,3.519875 10.55794,3.436902 14.71366,-0.422487 3.1496,-2.928056 4.22769,-7.245491 3.17641,-11.123507 1.15231,-0.560775 2.00716,-1.607255 2.30632,-2.863991 0.0175,-0.07112 0.0347,-0.141111 0.0485,-0.214771 0.015,-0.08269 0.0288,-0.1651 0.0384,-0.249767 0.0189,-0.147602 0.0308,-0.298027 0.0336,-0.450144 0,-0.01891 0.004,-0.03612 0.004,-0.05532 0,-0.004 -2.8e-4,-0.0071 -2.8e-4,-0.0099 0,-0.0048 2.8e-4,-0.01016 2.8e-4,-0.01411 0,-0.215053 -0.0209,-0.423333 -0.0528,-0.62992 -0.002,-0.01552 -0.004,-0.03076 -0.007,-0.04572 -0.33105,-2.031435 -2.12005,-3.585633 -4.28555,-3.585633 -0.004,0 -0.008,8.46e-4 -0.0116,8.46e-4 -0.005,0 -0.008,-8.46e-4 -0.0127,-8.46e-4 -0.0172,0 -0.0327,0.0031 -0.0497,0.0031 -0.0813,2.82e-4 -0.16369,0.0054 -0.24581,0.01157 -0.006,8.47e-4 -0.0133,0.0014 -0.0198,0.0023 -0.0945,0.0071 -0.18824,0.01863 -0.28081,0.03189 -0.0347,0.0054 -0.0703,0.0068 -0.10414,0.01185 -0.0144,0.0025 -0.0288,0.0017 -0.0426,0.0045 -0.006,0.0014 -0.013,0.0031 -0.0186,0.004 -0.0189,0.0045 -0.0375,0.0099 -0.0564,0.01298 -0.033,0.0071 -0.0657,0.01411 -0.0991,0.0223 -1.9716,0.413173 -3.45186,2.124569 -3.45186,4.181687 0,0.307904 0.044,0.607342 0.10866,0.897466 l 0.0449,0.187396 c 0.008,0.0302 0.0133,0.06124 0.0133,0.09596 0,0.194451 -0.15071,0.368017 -0.34996,0.346004 l -0.16482,-0.02342 -19.72733,-3.116016 -0.0302,0.203764 c -0.30536,1.920523 1.01262,3.733801 2.93511,4.037754 l 1.19013,0.187395 c -0.22295,1.87198 1.07386,3.606801 2.95007,3.901723 l 1.19042,0.188524 c -0.22239,1.871698 1.07272,3.606236 2.95119,3.903134 l 0.0514,0.0073 z"
         id="path5689" />
    </g>
  </g>
</svg>
