<?xml version="1.0" encoding="UTF-8" standalone="no"?><svg xmlns="http://www.w3.org/2000/svg" xmlns:xlink="http://www.w3.org/1999/xlink" contentScriptType="application/ecmascript" contentStyleType="text/css" height="601px" preserveAspectRatio="none" style="width:704px;height:601px;" version="1.1" viewBox="0 0 704 601" width="704px" zoomAndPan="magnify"><defs><filter height="300%" id="f1sg3f8l28kqlh" width="300%" x="-1" y="-1"><feGaussianBlur result="blurOut" stdDeviation="2.0"/><feColorMatrix in="blurOut" result="blurOut2" type="matrix" values="0 0 0 0 0 0 0 0 0 0 0 0 0 0 0 0 0 0 .4 0"/><feOffset dx="4.0" dy="4.0" in="blurOut2" result="blurOut3"/><feBlend in="SourceGraphic" in2="blurOut3" mode="normal"/></filter></defs><g><line style="stroke: #A80036; stroke-width: 1.0; stroke-dasharray: 5.0,5.0;" x1="27" x2="27" y1="86.2969" y2="514.1563"/><line style="stroke: #A80036; stroke-width: 1.0; stroke-dasharray: 5.0,5.0;" x1="263" x2="263" y1="86.2969" y2="514.1563"/><line style="stroke: #A80036; stroke-width: 1.0; stroke-dasharray: 5.0,5.0;" x1="469" x2="469" y1="86.2969" y2="514.1563"/><line style="stroke: #A80036; stroke-width: 1.0; stroke-dasharray: 5.0,5.0;" x1="598" x2="598" y1="86.2969" y2="514.1563"/><line style="stroke: #A80036; stroke-width: 1.0; stroke-dasharray: 5.0,5.0;" x1="675" x2="675" y1="86.2969" y2="514.1563"/><text fill="#000000" font-family="sans-serif" font-size="14" lengthAdjust="spacingAndGlyphs" textLength="32" x="8" y="82.9951">Alice</text><ellipse cx="27" cy="13" fill="#FEFECE" filter="url(#f1sg3f8l28kqlh)" rx="8" ry="8" style="stroke: #A80036; stroke-width: 2.0;"/><path d="M27,21 L27,48 M14,29 L40,29 M27,48 L14,63 M27,48 L40,63 " fill="none" filter="url(#f1sg3f8l28kqlh)" style="stroke: #A80036; stroke-width: 2.0;"/><text fill="#000000" font-family="sans-serif" font-size="14" lengthAdjust="spacingAndGlyphs" textLength="32" x="8" y="526.1514">Alice</text><ellipse cx="27" cy="539.4531" fill="#FEFECE" filter="url(#f1sg3f8l28kqlh)" rx="8" ry="8" style="stroke: #A80036; stroke-width: 2.0;"/><path d="M27,547.4531 L27,574.4531 M14,555.4531 L40,555.4531 M27,574.4531 L14,589.4531 M27,574.4531 L40,589.4531 " fill="none" filter="url(#f1sg3f8l28kqlh)" style="stroke: #A80036; stroke-width: 2.0;"/><rect fill="#FEFECE" filter="url(#f1sg3f8l28kqlh)" height="30.2969" style="stroke: #A80036; stroke-width: 1.5;" width="76" x="223" y="51"/><text fill="#000000" font-family="sans-serif" font-size="14" lengthAdjust="spacingAndGlyphs" textLength="62" x="230" y="70.9951">Alice app</text><rect fill="#FEFECE" filter="url(#f1sg3f8l28kqlh)" height="30.2969" style="stroke: #A80036; stroke-width: 1.5;" width="76" x="223" y="513.1563"/><text fill="#000000" font-family="sans-serif" font-size="14" lengthAdjust="spacingAndGlyphs" textLength="62" x="230" y="533.1514">Alice app</text><rect fill="#FEFECE" filter="url(#f1sg3f8l28kqlh)" height="30.2969" style="stroke: #A80036; stroke-width: 1.5;" width="112" x="411" y="51"/><text fill="#000000" font-family="sans-serif" font-size="14" lengthAdjust="spacingAndGlyphs" textLength="98" x="418" y="70.9951">Wazo Platform</text><rect fill="#FEFECE" filter="url(#f1sg3f8l28kqlh)" height="30.2969" style="stroke: #A80036; stroke-width: 1.5;" width="112" x="411" y="513.1563"/><text fill="#000000" font-family="sans-serif" font-size="14" lengthAdjust="spacingAndGlyphs" textLength="98" x="418" y="533.1514">Wazo Platform</text><rect fill="#FEFECE" filter="url(#f1sg3f8l28kqlh)" height="30.2969" style="stroke: #A80036; stroke-width: 1.5;" width="84" x="554" y="51"/><text fill="#000000" font-family="sans-serif" font-size="14" lengthAdjust="spacingAndGlyphs" textLength="70" x="561" y="70.9951">Ethan app</text><rect fill="#FEFECE" filter="url(#f1sg3f8l28kqlh)" height="30.2969" style="stroke: #A80036; stroke-width: 1.5;" width="84" x="554" y="513.1563"/><text fill="#000000" font-family="sans-serif" font-size="14" lengthAdjust="spacingAndGlyphs" textLength="70" x="561" y="533.1514">Ethan app</text><text fill="#000000" font-family="sans-serif" font-size="14" lengthAdjust="spacingAndGlyphs" textLength="40" x="652" y="82.9951">Ethan</text><ellipse cx="675" cy="13" fill="#FEFECE" filter="url(#f1sg3f8l28kqlh)" rx="8" ry="8" style="stroke: #A80036; stroke-width: 2.0;"/><path d="M675,21 L675,48 M662,29 L688,29 M675,48 L662,63 M675,48 L688,63 " fill="none" filter="url(#f1sg3f8l28kqlh)" style="stroke: #A80036; stroke-width: 2.0;"/><text fill="#000000" font-family="sans-serif" font-size="14" lengthAdjust="spacingAndGlyphs" textLength="40" x="652" y="526.1514">Ethan</text><ellipse cx="675" cy="539.4531" fill="#FEFECE" filter="url(#f1sg3f8l28kqlh)" rx="8" ry="8" style="stroke: #A80036; stroke-width: 2.0;"/><path d="M675,547.4531 L675,574.4531 M662,555.4531 L688,555.4531 M675,574.4531 L662,589.4531 M675,574.4531 L688,589.4531 " fill="none" filter="url(#f1sg3f8l28kqlh)" style="stroke: #A80036; stroke-width: 2.0;"/><polygon fill="#A80036" points="251,113.4297,261,117.4297,251,121.4297,255,117.4297" style="stroke: #A80036; stroke-width: 1.0;"/><line style="stroke: #A80036; stroke-width: 1.0;" x1="27" x2="257" y1="117.4297" y2="117.4297"/><text fill="#000000" font-family="sans-serif" font-size="13" lengthAdjust="spacingAndGlyphs" textLength="100" x="34" y="112.3638">Create meeting</text><polygon fill="#A80036" points="457,142.5625,467,146.5625,457,150.5625,461,146.5625" style="stroke: #A80036; stroke-width: 1.0;"/><line style="stroke: #A80036; stroke-width: 1.0;" x1="263" x2="463" y1="146.5625" y2="146.5625"/><text fill="#000000" font-family="sans-serif" font-size="13" lengthAdjust="spacingAndGlyphs" textLength="166" x="270" y="141.4966">POST /users/me/meetings</text><polygon fill="#A80036" points="274,171.6953,264,175.6953,274,179.6953,270,175.6953" style="stroke: #A80036; stroke-width: 1.0;"/><line style="stroke: #A80036; stroke-width: 1.0;" x1="268" x2="468" y1="175.6953" y2="175.6953"/><text fill="#000000" font-family="sans-serif" font-size="13" lengthAdjust="spacingAndGlyphs" textLength="79" x="280" y="170.6294">201 Created</text><polygon fill="#A80036" points="38,200.8281,28,204.8281,38,208.8281,34,204.8281" style="stroke: #A80036; stroke-width: 1.0;"/><line style="stroke: #A80036; stroke-width: 1.0;" x1="32" x2="262" y1="204.8281" y2="204.8281"/><text fill="#000000" font-family="sans-serif" font-size="13" lengthAdjust="spacingAndGlyphs" textLength="212" x="44" y="199.7622">https://meetings.example.com/...</text><polygon fill="#A80036" points="457,229.9609,467,233.9609,457,237.9609,461,233.9609" style="stroke: #A80036; stroke-width: 1.0;"/><line style="stroke: #A80036; stroke-width: 1.0;" x1="263" x2="463" y1="233.9609" y2="233.9609"/><text fill="#000000" font-family="sans-serif" font-size="13" lengthAdjust="spacingAndGlyphs" textLength="78" x="270" y="228.895">Call Meeting</text><polygon fill="#A80036" points="663,259.0938,673,263.0938,663,267.0938,667,263.0938" style="stroke: #A80036; stroke-width: 1.0;"/><line style="stroke: #A80036; stroke-width: 1.0;" x1="27" x2="669" y1="263.0938" y2="263.0938"/><text fill="#000000" font-family="sans-serif" font-size="13" lengthAdjust="spacingAndGlyphs" textLength="304" x="34" y="258.0278">Share the link https://meetings.example.com/...</text><polygon fill="#A80036" points="609,288.2266,599,292.2266,609,296.2266,605,292.2266" style="stroke: #A80036; stroke-width: 1.0;"/><line style="stroke: #A80036; stroke-width: 1.0;" x1="603" x2="674" y1="292.2266" y2="292.2266"/><text fill="#000000" font-family="sans-serif" font-size="13" lengthAdjust="spacingAndGlyphs" textLength="34" x="615" y="287.1606">Open</text><polygon fill="#A80036" points="480,317.3594,470,321.3594,480,325.3594,476,321.3594" style="stroke: #A80036; stroke-width: 1.0;"/><line style="stroke: #A80036; stroke-width: 1.0;" x1="474" x2="597" y1="321.3594" y2="321.3594"/><text fill="#000000" font-family="sans-serif" font-size="13" lengthAdjust="spacingAndGlyphs" textLength="78" x="486" y="316.2935">Call Meeting</text><polygon fill="#A80036" points="609,346.4922,599,350.4922,609,354.4922,605,350.4922" style="stroke: #A80036; stroke-width: 1.0;"/><line style="stroke: #A80036; stroke-width: 1.0;" x1="603" x2="674" y1="350.4922" y2="350.4922"/><text fill="#000000" font-family="sans-serif" font-size="13" lengthAdjust="spacingAndGlyphs" textLength="50" x="615" y="345.4263">Hangup</text><polygon fill="#A80036" points="480,375.625,470,379.625,480,383.625,476,379.625" style="stroke: #A80036; stroke-width: 1.0;"/><line style="stroke: #A80036; stroke-width: 1.0;" x1="474" x2="597" y1="379.625" y2="379.625"/><text fill="#000000" font-family="sans-serif" font-size="13" lengthAdjust="spacingAndGlyphs" textLength="105" x="486" y="374.5591">Hangup Meeting</text><polygon fill="#A80036" points="251,404.7578,261,408.7578,251,412.7578,255,408.7578" style="stroke: #A80036; stroke-width: 1.0;"/><line style="stroke: #A80036; stroke-width: 1.0;" x1="27" x2="257" y1="408.7578" y2="408.7578"/><text fill="#000000" font-family="sans-serif" font-size="13" lengthAdjust="spacingAndGlyphs" textLength="50" x="34" y="403.6919">Hangup</text><polygon fill="#A80036" points="457,433.8906,467,437.8906,457,441.8906,461,437.8906" style="stroke: #A80036; stroke-width: 1.0;"/><line style="stroke: #A80036; stroke-width: 1.0;" x1="263" x2="463" y1="437.8906" y2="437.8906"/><text fill="#000000" font-family="sans-serif" font-size="13" lengthAdjust="spacingAndGlyphs" textLength="105" x="270" y="432.8247">Hangup Meeting</text><polygon fill="#A80036" points="251,463.0234,261,467.0234,251,471.0234,255,467.0234" style="stroke: #A80036; stroke-width: 1.0;"/><line style="stroke: #A80036; stroke-width: 1.0;" x1="27" x2="257" y1="467.0234" y2="467.0234"/><text fill="#000000" font-family="sans-serif" font-size="13" lengthAdjust="spacingAndGlyphs" textLength="97" x="34" y="461.9575">Delete Meeting</text><polygon fill="#A80036" points="457,492.1563,467,496.1563,457,500.1563,461,496.1563" style="stroke: #A80036; stroke-width: 1.0;"/><line style="stroke: #A80036; stroke-width: 1.0;" x1="263" x2="463" y1="496.1563" y2="496.1563"/><text fill="#000000" font-family="sans-serif" font-size="13" lengthAdjust="spacingAndGlyphs" textLength="182" x="270" y="491.0903">DELETE /user/me/meeting/...</text><!--
@startuml

actor Alice as alice
participant "Alice app" as alice_app
participant "Wazo Platform" as server
participant "Ethan app" as ethan_app
actor "Ethan" as ethan

alice -> alice_app: Create meeting
alice_app -> server: POST /users/me/meetings
server -> alice_app: 201 Created
alice_app -> alice: https://meetings.example.com/...
alice_app -> server: Call Meeting
alice -> ethan: Share the link https://meetings.example.com/...
ethan -> ethan_app: Open
ethan_app -> server: Call Meeting
ethan -> ethan_app: Hangup
ethan_app -> server: Hangup Meeting
alice -> alice_app: Hangup
alice_app -> server: Hangup Meeting
alice -> alice_app: Delete Meeting
alice_app -> server: DELETE /user/me/meeting/...

@enduml

PlantUML version 1.2018.13(Mon Nov 26 12:11:51 EST 2018)
(GPL source distribution)
Java Runtime: OpenJDK Runtime Environment
JVM: OpenJDK 64-Bit Server VM
Java Version: 11.0.11+9-Ubuntu-0ubuntu2.20.04
Operating System: Linux
OS Version: 5.4.0-89-generic
Default Encoding: UTF-8
Language: en
Country: US
--></g></svg>