<svg version="1.1" xmlns="http://www.w3.org/2000/svg" viewBox="0 0 850 558.2505422042356" width="850" height="558.2505422042356">
  <!-- svg-source:excalidraw -->
  
  <defs>
    <style class="style-fonts">
      @font-face {
        font-family: "Virgil";
        src: url("https://excalidraw.com/Virgil.woff2");
      }
      @font-face {
        font-family: "Cascadia";
        src: url("https://excalidraw.com/Cascadia.woff2");
      }
    </style>
  </defs>
  <rect x="0" y="0" width="850" height="558.2505422042356" fill="#ffffff"></rect><g transform="translate(192 10) rotate(0 52.5 26)"><text x="0" y="18" font-family="Virgil, Segoe UI Emoji" font-size="20px" fill="#000000" text-anchor="start" style="white-space: pre;" direction="ltr">Wazo app</text><text x="0" y="44" font-family="Virgil, Segoe UI Emoji" font-size="20px" fill="#000000" text-anchor="start" style="white-space: pre;" direction="ltr">web server</text></g><g stroke-linecap="round"><g transform="translate(242 79) rotate(0 -0.8229335695505142 231.07366422712803)"><path d="M-0.58 -0.66 C-0.67 76.47, -0.79 385.73, -1.06 462.81" stroke="#000000" stroke-width="1.5" fill="none" stroke-dasharray="8 9"></path></g></g><mask></mask><g stroke-linecap="round"><g transform="translate(545.1035657900479 92.20879867837294) rotate(0 -2.9138747781515235 228.05058384835715)"><path d="M-0.29 0.06 C-1.07 76.23, -4.38 380.04, -5.54 456.04" stroke="#000000" stroke-width="1.5" fill="none" stroke-dasharray="8 9"></path></g></g><mask></mask><g transform="translate(735 14) rotate(0 52.5 26)"><text x="0" y="18" font-family="Virgil, Segoe UI Emoji" font-size="20px" fill="#000000" text-anchor="start" style="white-space: pre;" direction="ltr">Plugin</text><text x="0" y="44" font-family="Virgil, Segoe UI Emoji" font-size="20px" fill="#000000" text-anchor="start" style="white-space: pre;" direction="ltr">web server</text></g><g mask="url(#mask-3Rozi5OiKHFDeEHjEMbYf)" stroke-linecap="round"><g transform="translate(42.99999999999994 254) rotate(0 360.7849678128958 1.1812962919473762)"><path d="M-0.4 -0.74 C119.97 -0.19, 601.65 2.58, 721.97 3.11 M1.59 1.48 C121.82 1.74, 601.18 1.76, 721 1.56" stroke="#000000" stroke-width="1" fill="none"></path></g><g transform="translate(42.99999999999994 254) rotate(0 360.7849678128958 1.1812962919473762)"><path d="M691.58 11.79 C702.62 8.27, 709.39 5.85, 721.58 1.71 M692.05 11.88 C701.77 8.57, 711.34 4.73, 720.63 0.87" stroke="#000000" stroke-width="1" fill="none"></path></g><g transform="translate(42.99999999999994 254) rotate(0 360.7849678128958 1.1812962919473762)"><path d="M691.57 -8.73 C702.57 -6.47, 709.35 -3.12, 721.58 1.71 M692.04 -8.64 C701.67 -5, 711.25 -1.89, 720.63 0.87" stroke="#000000" stroke-width="1" fill="none"></path></g></g><mask id="mask-3Rozi5OiKHFDeEHjEMbYf"><rect x="0" y="0" fill="#fff" width="865" height="356"></rect><rect x="256.00000000000006" y="242" fill="#000" width="296" height="26" opacity="1"></rect></mask><g transform="translate(256 242) rotate(0 147.78496781289573 13.181296291947376)"><text x="148" y="18" font-family="Virgil, Segoe UI Emoji" font-size="20px" fill="#000000" text-anchor="middle" style="white-space: pre;" direction="ltr">Get Wazo app plugin manifest</text></g><g transform="translate(10 17.379940107618438) rotate(0 39 13)"><text x="0" y="18" font-family="Virgil, Segoe UI Emoji" font-size="20px" fill="#000000" text-anchor="start" style="white-space: pre;" direction="ltr">Browser</text></g><g stroke-linecap="round"><g transform="translate(47 76.37994010761844) rotate(0 -1.2142423027707139 231.8198029542668)"><path d="M1.08 -1.11 C0.88 75.94, -1.7 385.77, -2.37 463.49 M0.19 0.92 C-0.11 78.64, -3.38 387.66, -3.51 464.75" stroke="#000000" stroke-width="1" fill="none"></path></g></g><mask></mask><g mask="url(#mask-RDWPC4r1DlDT79fcmCa0Z)" stroke-linecap="round"><g transform="translate(45 120) rotate(0 97.73004298270678 -0.08504386525034136)"><path d="M-0.22 -1.11 C32.35 -1.15, 162.52 -0.63, 195.05 -0.17 M-1.8 0.92 C31.17 0.97, 164.08 0.96, 197.26 0.75" stroke="#000000" stroke-width="1" fill="none"></path></g><g transform="translate(45 120) rotate(0 97.73004298270678 -0.08504386525034136)"><path d="M167.24 9.5 C174.72 6.62, 185.37 7.54, 195.88 0.82 M169.87 10.42 C178.25 7.86, 186.69 4.16, 197.61 1.61" stroke="#000000" stroke-width="1" fill="none"></path></g><g transform="translate(45 120) rotate(0 97.73004298270678 -0.08504386525034136)"><path d="M167.19 -11.02 C174.69 -8.38, 185.36 -1.93, 195.88 0.82 M169.82 -10.1 C178.05 -6.18, 186.51 -3.41, 197.61 1.61" stroke="#000000" stroke-width="1" fill="none"></path></g></g><mask id="mask-RDWPC4r1DlDT79fcmCa0Z"><rect x="0" y="0" fill="#fff" width="341" height="221"></rect><rect x="71.5" y="107.5" fill="#000" width="143" height="26" opacity="1"></rect></mask><g transform="translate(71.5 107.5) rotate(0 71.23004298270678 12.414956134749659)"><text x="71.5" y="18" font-family="Virgil, Segoe UI Emoji" font-size="20px" fill="#000000" text-anchor="middle" style="white-space: pre;" direction="ltr">Get Wazo app</text></g><g stroke-linecap="round"><g transform="translate(769.1035657900479 103.08352757625511) rotate(0 -2.4702427774667512 218.5108889013529)"><path d="M0.15 -1.01 C-0.72 72.04, -4.25 365.04, -5.09 438.03" stroke="#000000" stroke-width="1.5" fill="none" stroke-dasharray="8 9"></path></g></g><mask></mask><g transform="translate(466 27.874728897882164) rotate(0 79.5 13)"><text x="0" y="18" font-family="Virgil, Segoe UI Emoji" font-size="20px" fill="#000000" text-anchor="start" style="white-space: pre;" direction="ltr">Wazo UC server</text></g><g mask="url(#mask-tGiDiQeJcUlIzcextOtei)" stroke-linecap="round"><g transform="translate(45.26995701729322 180.5) rotate(0 248.2214338257909 -0.5465448420685561)"><path d="M-1.13 -1.13 C81.75 -1.66, 414.33 -1.73, 497.57 -2.01 M0.47 0.89 C83.13 1.08, 413.52 -0.02, 496.4 -0.47" stroke="#000000" stroke-width="1" fill="none"></path></g><g transform="translate(45.26995701729322 180.5) rotate(0 248.2214338257909 -0.5465448420685561)"><path d="M466.37 9.2 C477.3 7.36, 485.18 2.49, 498.2 0.35 M468.23 8.92 C477.52 7.33, 487.33 3.88, 496.87 0.38" stroke="#000000" stroke-width="1" fill="none"></path></g><g transform="translate(45.26995701729322 180.5) rotate(0 248.2214338257909 -0.5465448420685561)"><path d="M466.29 -11.32 C477.43 -6.49, 485.35 -4.69, 498.2 0.35 M468.15 -11.6 C477.56 -6.38, 487.4 -3.03, 496.87 0.38" stroke="#000000" stroke-width="1" fill="none"></path></g></g><mask id="mask-tGiDiQeJcUlIzcextOtei"><rect x="0" y="0" fill="#fff" width="643.2699570172932" height="282.5"></rect><rect x="198.26995701729322" y="166.5" fill="#000" width="192" height="26" opacity="1"></rect></mask><g transform="translate(198.26995701729322 166.5) rotate(0 95.22143382579091 13.453455157931444)"><text x="96" y="18" font-family="Virgil, Segoe UI Emoji" font-size="20px" fill="#000000" text-anchor="middle" style="white-space: pre;" direction="ltr">List enabled plugins</text></g><g mask="url(#mask-Kp2wHgRmp94Thu2PupVM_)" stroke-linecap="round"><g transform="translate(50.21503218710427 326) rotate(0 360.4578880796814 1.8655636918425103)"><path d="M-0.2 1.09 C120.32 1.59, 602.48 3.13, 722.68 3.11 M-1.76 0.62 C118.69 0.8, 601.24 1.38, 722.09 1.58" stroke="#000000" stroke-width="1" fill="none"></path></g><g transform="translate(50.21503218710427 326) rotate(0 360.4578880796814 1.8655636918425103)"><path d="M695.7 12.93 C703.21 7.41, 707.14 7.87, 720.64 2.07 M694.71 12.52 C701.09 8.24, 710.17 6.94, 722.45 1.33" stroke="#000000" stroke-width="1" fill="none"></path></g><g transform="translate(50.21503218710427 326) rotate(0 360.4578880796814 1.8655636918425103)"><path d="M695.73 -7.59 C703.25 -7.67, 707.17 -1.77, 720.64 2.07 M694.74 -8 C701.16 -6.57, 710.24 -2.17, 722.45 1.33" stroke="#000000" stroke-width="1" fill="none"></path></g></g><mask id="mask-Kp2wHgRmp94Thu2PupVM_"><rect x="0" y="0" fill="#fff" width="872.2150321871043" height="428"></rect><rect x="243.21503218710427" y="314" fill="#000" width="336" height="26" opacity="1"></rect></mask><g transform="translate(243.21503218710427 314) rotate(0 167.45788807968142 13.86556369184251)"><text x="168" y="18" font-family="Virgil, Segoe UI Emoji" font-size="20px" fill="#000000" text-anchor="middle" style="white-space: pre;" direction="ltr">Get Wazo app plugin code and UI</text></g><g mask="url(#mask-mKzHj1vh9a4_8IWIu5-B9)" stroke-linecap="round"><g transform="translate(44 408) rotate(0 52.72033680987258 40.01983385883415)"><path d="M-0.04 0.41 C12.07 0.26, 55.82 -11.66, 73.11 -0.58 C90.41 10.5, 116.01 52.65, 103.74 66.89 C91.47 81.13, 16.84 81.73, -0.52 84.84 M-1.52 -0.42 C10.49 -0.44, 55.36 -10.25, 72.75 0.65 C90.14 11.56, 115.06 50.9, 102.84 65.01 C90.63 79.13, 16.33 81.89, -0.54 85.33" stroke="#000000" stroke-width="1" fill="none"></path></g><g transform="translate(44 408) rotate(0 52.72033680987258 40.01983385883415)"><path d="M26.94 73.69 C16.25 75.97, 9.62 80.11, -2.48 84.71 M25.96 71.81 C18.47 75.55, 12.26 78.72, -1.26 84.34" stroke="#000000" stroke-width="1" fill="none"></path></g><g transform="translate(44 408) rotate(0 52.72033680987258 40.01983385883415)"><path d="M29.34 94.07 C17.78 89.45, 10.34 86.68, -2.48 84.71 M28.36 92.19 C20.29 90.66, 13.46 88.56, -1.26 84.34" stroke="#000000" stroke-width="1" fill="none"></path></g></g><mask id="mask-mKzHj1vh9a4_8IWIu5-B9"><rect x="0" y="0" fill="#fff" width="248" height="594"></rect><rect x="34.158066909429294" y="425.33735892477137" fill="#000" width="217" height="26" opacity="1"></rect></mask><g transform="translate(34.158066909429294 425.33735892477137) rotate(0 62.56226990044328 22.682474934062782)"><text x="108.5" y="18" font-family="Virgil, Segoe UI Emoji" font-size="20px" fill="#000000" text-anchor="middle" style="white-space: pre;" direction="ltr">Display app and plugin</text></g></svg>