<svg width="69" height="58" viewBox="0 0 69 58" fill="none" xmlns="http://www.w3.org/2000/svg">
<path d="M68.3848 13.8657L61.9852 12.3586C62.2526 13.175 62.4316 14.0323 62.4868 14.93C62.5626 16.21 62.3699 17.5185 61.9994 18.677V18.6983C61.9889 18.7351 61.9784 18.7695 61.9784 18.8086C61.9784 18.9479 62.0572 19.0659 62.1717 19.1311L62.178 19.1461C62.178 19.1461 62.1843 19.1478 62.199 19.1513C62.2475 19.1732 62.3005 19.1881 62.3578 19.1881C62.4372 19.1881 62.5042 19.1561 62.5647 19.1169C62.5773 19.1151 62.5857 19.1121 62.5857 19.1121L62.7335 18.9911L62.8645 18.8933L68.4441 14.1004C68.4815 14.0684 68.5005 14.0157 68.4881 13.9653C68.4755 13.9172 68.4347 13.8787 68.3861 13.8657L68.3848 13.8657Z" fill="white"/>
<path d="M8.91209 0L8.70517 0.356322C6.74154 3.71145 7.87752 8.04246 11.235 10.0091L13.3137 11.2227C12.837 12.1132 12.5761 13.0648 12.5079 14.0205L40.3723 18.3983L8.91209 0Z" fill="white"/>
<path d="M7.7524 55.5235C9.96385 57.8334 13.3332 58.4263 16.1393 57.199L18.3834 49.913C27.3246 57.3075 40.5632 57.1332 49.2934 49.0255C55.91 42.8743 58.1747 33.8044 55.9662 25.6576C58.387 24.4795 60.1829 22.2811 60.8113 19.641C60.8481 19.4916 60.8842 19.3446 60.9132 19.1898C60.9447 19.0161 60.9737 18.843 60.9938 18.6651C61.0335 18.3551 61.0585 18.0391 61.0644 17.7195C61.0644 17.6798 61.0728 17.6436 61.0728 17.6033C61.0728 17.5949 61.0723 17.5884 61.0723 17.5825C61.0723 17.5724 61.0728 17.5611 61.0728 17.5528C61.0728 17.1011 61.0289 16.6635 60.9619 16.2295C60.9577 16.1969 60.9535 16.1649 60.9472 16.1335C60.2518 11.8659 56.4935 8.60089 51.9443 8.60089C51.9359 8.60089 51.9275 8.60267 51.9199 8.60267C51.9094 8.60267 51.9031 8.60089 51.8933 8.60089C51.8571 8.60089 51.8245 8.60741 51.7888 8.60741C51.618 8.608 51.4449 8.61875 51.2724 8.63171C51.2598 8.63349 51.2445 8.63465 51.2309 8.63654C51.0323 8.65146 50.8354 8.67568 50.6409 8.70354C50.568 8.71488 50.4933 8.71782 50.4222 8.72843C50.3919 8.73368 50.3617 8.732 50.3327 8.73788C50.3201 8.74082 50.3053 8.74439 50.2936 8.74629C50.2539 8.75574 50.2148 8.76709 50.1751 8.77356C50.1058 8.78847 50.0371 8.8032 49.9669 8.8204C45.8251 9.68838 42.7153 13.2836 42.7153 17.6052C42.7153 18.252 42.8078 18.881 42.9436 19.4905L43.038 19.8842C43.0548 19.9476 43.0659 20.0128 43.0659 20.0858C43.0659 20.4943 42.7493 20.8589 42.3307 20.8127L41.9845 20.7635L0.541909 14.2174L0.478504 14.6455C-0.162986 18.6801 2.6058 22.4893 6.64451 23.1279L9.14468 23.5215C8.67632 27.4541 11.4006 31.0986 15.3421 31.7182L17.8428 32.1142C17.3757 36.0462 20.0964 39.6901 24.0426 40.3138L24.1506 40.3291L7.7524 55.5235Z" fill="white"/>
</svg>
